<svg width="288" height="288" viewBox="0 0 288 288" fill="none" xmlns="http://www.w3.org/2000/svg">
<rect y="45" width="281" height="243" rx="10" fill="#F1F2FF"/>
<path d="M153.25 144.1C140.15 144.1 129.85 139.15 122.35 129.25C114.95 119.25 111.25 106 111.25 89.5C111.25 73 114.95 59.8 122.35 49.9C129.85 39.9 140.15 34.9 153.25 34.9C166.45 34.9 176.75 39.9 184.15 49.9C191.55 59.8 195.25 73 195.25 89.5C195.25 106 191.55 119.25 184.15 129.25C176.75 139.15 166.45 144.1 153.25 144.1ZM137.35 115.15C140.95 120.95 146.25 123.85 153.25 123.85C160.25 123.85 165.55 120.9 169.15 115C172.85 109.1 174.7 100.6 174.7 89.5C174.7 78.3 172.85 69.75 169.15 63.85C165.55 57.95 160.25 55 153.25 55C146.25 55 140.95 57.95 137.35 63.85C133.75 69.75 131.95 78.3 131.95 89.5C131.95 100.7 133.75 109.25 137.35 115.15ZM285.382 104.95V124.15H274.132V142H253.282V124.15H203.632V104.95L238.582 37H260.782L225.982 104.95H253.282V80.05H274.132V104.95H285.382Z" fill="white"/>
<ellipse cx="140.5" cy="258.5" rx="63.5" ry="7.5" fill="url(#paint0_radial)" fill-opacity="0.1"/>
<g clip-path="url(#clip0)">
<path d="M147.793 166.5C147.793 155.133 148.633 144.405 150.116 134.897C153.712 111.835 161.116 96 169.672 96H118.621C108.089 96 93.7603 119.978 90.2517 151.914C89.7345 156.621 89.4482 161.498 89.4482 166.5C89.4482 167.315 89.4665 168.122 89.4814 168.931C90.1724 206.739 106.79 237 118.621 237H169.672C157.589 237 147.793 205.436 147.793 166.5Z" fill="#BABABA"/>
<path d="M150.116 134.897H150.224H150.116C148.633 144.405 147.793 155.133 147.793 166.5C147.793 205.436 157.589 237 169.672 237C181.756 237 191.552 205.436 191.552 166.5C191.552 127.564 181.756 96 169.672 96C161.116 96 153.712 111.835 150.116 134.897Z" fill="#969696"/>
<path d="M169.672 200.535C175.043 200.535 179.397 185.297 179.397 166.5C179.397 147.703 175.043 132.466 169.672 132.466C164.302 132.466 159.948 147.703 159.948 166.5C159.948 185.297 164.302 200.535 169.672 200.535Z" fill="#454545"/>
<path d="M119.703 110.995L113.023 115.448H100.068C99.3368 116.996 98.6266 118.615 97.9453 120.31H113.759C114.238 120.31 114.708 120.168 115.107 119.902L122.4 115.04L119.703 110.995Z" fill="#555555"/>
<path d="M114.841 128.012L108.16 132.466H93.9023C93.4735 134.05 93.0702 135.672 92.6943 137.328H108.896C109.376 137.328 109.846 137.185 110.245 136.919L117.538 132.057L114.841 128.012Z" fill="#555555"/>
<path d="M109.979 145.029L103.298 149.483H90.5463C90.4427 150.289 90.3412 151.097 90.2516 151.914C90.1641 152.711 90.124 153.539 90.0498 154.345H104.034C104.514 154.345 104.984 154.202 105.383 153.936L112.676 149.074L109.979 145.029Z" fill="#555555"/>
<path d="M89.5579 171.362H104.034C104.514 171.362 104.984 171.22 105.383 170.954L112.676 166.092L109.979 162.046L103.298 166.5H89.4482C89.4482 167.315 89.4665 168.123 89.4814 168.931C89.4963 169.747 89.5285 170.554 89.5579 171.362Z" fill="#555555"/>
<path d="M112.41 179.063L105.73 183.517H90.5557C90.7672 185.162 91.0069 186.783 91.2731 188.379H106.466C106.945 188.379 107.415 188.237 107.814 187.971L115.107 183.109L112.41 179.063Z" fill="#555555"/>
<path d="M117.272 196.081L110.592 200.534H93.9141C94.3641 202.198 94.8415 203.819 95.3435 205.397H111.328C111.807 205.397 112.277 205.254 112.676 204.988L119.969 200.126L117.272 196.081Z" fill="#555555"/>
<path d="M122.134 213.098L115.454 217.552H100.071C100.883 219.272 101.723 220.891 102.583 222.414H116.19C116.669 222.414 117.139 222.271 117.538 222.005L124.831 217.143L122.134 213.098Z" fill="#555555"/>
<path d="M135.638 137.328H149.789C149.902 136.525 149.993 135.683 150.116 134.897C150.244 134.07 150.389 133.274 150.528 132.466H136.374L129.693 128.012L126.996 132.058L134.289 136.92C134.688 137.185 135.158 137.328 135.638 137.328Z" fill="#555555"/>
<path d="M133.207 154.345H148.157C148.245 152.714 148.324 151.073 148.447 149.483H133.943L127.262 145.029L124.565 149.075L131.859 153.937C132.257 154.202 132.727 154.345 133.207 154.345Z" fill="#555555"/>
<path d="M133.207 171.362H147.85C147.816 169.754 147.793 168.136 147.793 166.5H133.943L127.262 162.046L124.565 166.092L131.859 170.954C132.257 171.22 132.727 171.362 133.207 171.362Z" fill="#555555"/>
<path d="M133.207 188.379H148.873C148.711 186.782 148.565 185.162 148.439 183.517H133.943L127.262 179.063L124.565 183.109L131.859 187.971C132.257 188.237 132.727 188.379 133.207 188.379Z" fill="#555555"/>
<path d="M135.638 205.397H151.426C151.101 203.819 150.795 202.198 150.51 200.534H136.374L129.693 196.081L126.996 200.126L134.289 204.988C134.688 205.254 135.158 205.397 135.638 205.397Z" fill="#555555"/>
<path d="M140.5 222.414H156.352C155.738 220.894 155.152 219.269 154.592 217.552H141.236L134.555 213.098L131.858 217.144L139.152 222.006C139.55 222.271 140.02 222.414 140.5 222.414Z" fill="#555555"/>
<path d="M138.069 120.31H153.164C153.619 118.623 154.092 116.989 154.594 115.448H138.805L132.125 110.995L129.428 115.04L136.721 119.902C137.12 120.168 137.59 120.31 138.069 120.31Z" fill="#555555"/>
<path d="M159.98 229.707H107.467C111.248 234.365 115.141 237 118.621 237H169.673C166.191 237 162.902 234.368 159.98 229.707Z" fill="#969696"/>
</g>
<defs>
<radialGradient id="paint0_radial" cx="0" cy="0" r="1" gradientUnits="userSpaceOnUse" gradientTransform="translate(140.5 258.5) rotate(90) scale(7.5 63.5)">
<stop/>
<stop offset="1" stop-opacity="0"/>
</radialGradient>
<clipPath id="clip0">
<rect width="141" height="141" fill="white" transform="translate(70 96)"/>
</clipPath>
</defs>
</svg>
