<svg width="286" height="289" viewBox="0 0 286 289" fill="none" xmlns="http://www.w3.org/2000/svg">
<rect y="45" width="282" height="244" rx="10" fill="#F1F2FF"/>
<path d="M161.25 144.1C148.15 144.1 137.85 139.15 130.35 129.25C122.95 119.25 119.25 106 119.25 89.5C119.25 73 122.95 59.8 130.35 49.9C137.85 39.9 148.15 34.9 161.25 34.9C174.45 34.9 184.75 39.9 192.15 49.9C199.55 59.8 203.25 73 203.25 89.5C203.25 106 199.55 119.25 192.15 129.25C184.75 139.15 174.45 144.1 161.25 144.1ZM145.35 115.15C148.95 120.95 154.25 123.85 161.25 123.85C168.25 123.85 173.55 120.9 177.15 115C180.85 109.1 182.7 100.6 182.7 89.5C182.7 78.3 180.85 69.75 177.15 63.85C173.55 57.95 168.25 55 161.25 55C154.25 55 148.95 57.95 145.35 63.85C141.75 69.75 139.95 78.3 139.95 89.5C139.95 100.7 141.75 109.25 145.35 115.15ZM257.184 79.6C264.284 81.7 270.034 85.4 274.434 90.7C278.934 95.9 281.184 102.2 281.184 109.6C281.184 120.4 277.534 128.85 270.234 134.95C263.034 141.05 254.184 144.1 243.684 144.1C235.484 144.1 228.134 142.25 221.634 138.55C215.234 134.75 210.584 129.2 207.684 121.9L225.384 111.7C227.984 119.8 234.084 123.85 243.684 123.85C248.984 123.85 253.084 122.6 255.984 120.1C258.984 117.5 260.484 114 260.484 109.6C260.484 105.3 258.984 101.85 255.984 99.25C253.084 96.65 248.984 95.35 243.684 95.35H239.184L231.234 83.35L251.934 56.35H210.834V37H276.834V54.1L257.184 79.6Z" fill="white"/>
<ellipse cx="138.5" cy="258.5" rx="90.5" ry="7.5" fill="url(#paint0_radial)" fill-opacity="0.1"/>
<path d="M213 140V220.438C213 230.672 204.672 239 194.438 239H87.5625C77.3278 239 69 230.672 69 220.438V140C69 137.514 71.0138 135.5 73.5 135.5H208.5C210.986 135.5 213 137.514 213 140Z" fill="#BABABA"/>
<path d="M213 140V220.438C213 230.672 204.672 239 194.438 239H185.438C195.672 239 204 230.672 204 220.438V140H213Z" fill="#969696"/>
<path d="M213 124.812V144.5H69V124.812C69 114.561 77.3107 106.25 87.5625 106.25H194.438C204.689 106.25 213 114.561 213 124.812Z" fill="#314963"/>
<path d="M213 124.812V144.5H204V124.812C204 114.561 195.689 106.25 185.438 106.25H194.438C204.689 106.25 213 114.561 213 124.812Z" fill="#0E2844"/>
<path d="M105 124.25C102.515 124.25 100.5 122.235 100.5 119.75V99.5C100.5 97.0149 102.515 95 105 95C107.485 95 109.5 97.0149 109.5 99.5V119.75C109.5 122.235 107.485 124.25 105 124.25Z" fill="#FFE07D"/>
<path d="M177 124.25C174.515 124.25 172.5 122.235 172.5 119.75V99.5C172.5 97.0149 174.515 95 177 95C179.485 95 181.5 97.0149 181.5 99.5V119.75C181.5 122.235 179.485 124.25 177 124.25Z" fill="#FFE07D"/>
<defs>
<radialGradient id="paint0_radial" cx="0" cy="0" r="1" gradientUnits="userSpaceOnUse" gradientTransform="translate(138.5 258.5) rotate(90) scale(7.5 90.5)">
<stop/>
<stop offset="1" stop-opacity="0"/>
</radialGradient>
</defs>
</svg>
