<svg width="91" height="93" viewBox="0 0 91 93" fill="none" xmlns="http://www.w3.org/2000/svg">
<path d="M59.208 22.1603C57.8404 22.1611 56.5173 22.6569 55.4733 23.5598C54.4293 24.4626 53.732 25.7141 53.5049 27.0924L64.9833 26.9885C64.7338 25.6246 64.0231 24.3938 62.9754 23.5112C61.9278 22.6286 60.6099 22.1504 59.2523 22.1603H59.208Z" fill="#35AAF9"/>
<path d="M60.5527 9.99023H60.5097L26.5489 10.2627C22.7276 10.2914 20.3346 14.219 19.2478 16.5531C19.2368 16.5769 19.225 16.6045 19.2122 16.6276L13.3896 27.3582L50.9911 27.0761C51.2226 25.0144 52.1843 23.1105 53.6948 21.7236C55.2054 20.3367 57.1603 19.5627 59.1908 19.5475C61.2214 19.5323 63.1872 20.277 64.7174 21.6411C66.2476 23.0053 67.2365 24.8946 67.4975 26.9526L73.578 26.907L67.8308 16.2507C65.4045 11.8809 63.223 9.99023 60.5527 9.99023Z" fill="#35AAF9"/>
<path d="M10.9038 53.9473L36.459 53.7169C37.0894 49.899 38.5088 46.2622 40.6224 43.0488H40.6137C40.2857 43.0497 39.9707 42.9178 39.7376 42.682C39.5045 42.4462 39.3721 42.1256 39.3696 41.7904L39.3456 38.4622C39.3444 38.2952 39.3754 38.1297 39.4369 37.975C39.4983 37.8202 39.589 37.6794 39.7037 37.5605C39.8184 37.4416 39.9549 37.3469 40.1054 37.2819C40.2559 37.2169 40.4174 37.1828 40.5808 37.1817C40.7442 37.1805 40.9062 37.2122 41.0576 37.275C41.209 37.3378 41.3468 37.4304 41.4632 37.5476C41.5795 37.6649 41.6721 37.8044 41.7357 37.9582C41.7993 38.112 41.8327 38.2771 41.8338 38.4441L41.8546 41.3358C43.4169 39.3273 45.2477 37.5534 47.2933 36.066C52.161 32.531 58.0489 30.768 64.0136 31.0595C69.9783 31.351 75.6747 33.6801 80.1902 37.6737L80.5309 34.8823C80.509 33.4686 80.0036 32.1074 79.1024 31.0348C78.6828 30.5335 78.1625 30.1304 77.577 29.8528C76.9914 29.5752 76.3543 29.4295 75.7088 29.4258H75.6661C75.6569 29.4258 75.6483 29.4554 75.6386 29.4552L11.2772 29.9707H11.2683C11.1997 29.9613 11.1318 29.9461 11.0655 29.9255C8.82946 30.0781 6.61134 32.1186 6.60156 35.4553L8.70896 51.5196C8.71576 51.5715 8.71938 51.6237 8.7198 51.676C8.72344 52.2739 8.95651 52.8465 9.36889 53.2707C9.76866 53.6911 10.3141 53.9341 10.8876 53.9473H10.9038ZM34.5458 37.2287C34.8755 37.2273 35.1923 37.3592 35.4271 37.5957C35.6619 37.8321 35.7956 38.1539 35.7991 38.4907L35.823 41.7942C35.8242 41.9599 35.793 42.1242 35.7312 42.2775C35.6695 42.4307 35.5785 42.5698 35.4635 42.6866C35.3485 42.8035 35.2118 42.8957 35.0615 42.9579C34.9112 43.0201 34.7503 43.051 34.5882 43.0488H34.5787C34.4175 43.0518 34.2573 43.0222 34.1074 42.9616C33.9575 42.901 33.8207 42.8107 33.7051 42.6959C33.5894 42.5811 33.4972 42.4441 33.4336 42.2926C33.37 42.1412 33.3363 41.9784 33.3346 41.8137L33.3104 38.4969C33.3094 38.3306 33.3406 38.1656 33.4023 38.0117C33.464 37.8577 33.5548 37.7177 33.6697 37.5998C33.7845 37.4819 33.9211 37.3885 34.0715 37.3248C34.2218 37.2611 34.3831 37.2284 34.5458 37.2287ZM28.5109 37.2741C28.8408 37.2716 29.1582 37.4032 29.3932 37.6399C29.6282 37.8766 29.7616 38.199 29.7641 38.5361L29.7881 41.9078C29.7929 42.2496 29.6662 42.5798 29.4352 42.8271C29.2043 43.0745 28.8875 43.2193 28.5532 43.2305H28.5441C28.2116 43.221 27.8957 43.0796 27.6635 42.8362C27.4312 42.5929 27.3009 42.2666 27.3 41.9267L27.276 38.5759C27.2728 38.2365 27.4006 37.9095 27.6318 37.6658C27.863 37.4221 28.1788 37.2814 28.5109 37.2741ZM15.8905 36.873H15.926C17.1891 36.8789 18.3991 37.3931 19.2938 38.3043C20.1885 39.2154 20.6959 40.4502 20.706 41.741C20.7254 44.4346 18.5969 46.5 15.9605 46.6816H15.925C14.6522 46.6863 13.4298 46.174 12.5267 45.2575C11.6235 44.3411 11.1136 43.0955 11.1091 41.7948C11.1046 40.4941 11.6058 39.2448 12.5026 38.3218C13.3993 37.3988 14.6181 36.8777 15.8908 36.873H15.8905Z" fill="#35AAF9"/>
<path d="M12.7916 23.2185C11.2631 23.227 9.25578 23.239 7.99849 23.2485C6.30379 23.2612 4.91906 24.0432 4.55293 25.1942C4.43751 25.5605 4.34257 25.9331 4.26855 26.3104L11.1469 26.2494L12.7916 23.2185Z" fill="#35AAF9"/>
<path d="M12.6567 61.4808C12.6571 61.5419 12.6694 61.6024 12.6931 61.6586C12.7168 61.7147 12.7512 61.7654 12.7945 61.8077C12.8813 61.8932 12.9976 61.9403 13.1181 61.9389H13.1217L18.3014 61.9047C18.4234 61.9041 18.5402 61.8541 18.6262 61.7655C18.7121 61.677 18.7601 61.5572 18.7596 61.4325L18.723 56.3545L12.6201 56.401L12.6567 61.4808Z" fill="#35AAF9"/>
<path d="M15.9431 44.0511C16.2409 44.05 16.5355 43.989 16.8103 43.8715C17.085 43.7539 17.3343 43.5823 17.5441 43.3663C17.7539 43.1503 17.9201 42.8942 18.033 42.6126C18.146 42.331 18.2035 42.0294 18.2024 41.725C18.2013 41.4207 18.1416 41.1196 18.0266 40.8388C17.9116 40.5581 17.7437 40.3032 17.5323 40.0888C17.321 39.8744 17.0704 39.7046 16.7948 39.5892C16.5193 39.4737 16.2242 39.4149 15.9264 39.416H15.9086C15.6089 39.4152 15.3119 39.4752 15.035 39.5924C14.758 39.7096 14.5066 39.8817 14.2952 40.0988C14.0837 40.316 13.9165 40.5738 13.8031 40.8574C13.6898 41.141 13.6326 41.4447 13.6348 41.751C13.6371 42.0573 13.6987 42.3602 13.8161 42.642C13.9336 42.9238 14.1046 43.1791 14.3192 43.393C14.5337 43.6068 14.7877 43.7751 15.0663 43.8881C15.3449 44.0011 15.6427 44.0565 15.9424 44.0511H15.9431Z" fill="#35AAF9"/>
<path d="M47.0994 61.3146V65.389C47.0925 65.6218 47.1308 65.8537 47.212 66.0713C47.2932 66.289 47.4157 66.488 47.5725 66.657C47.7294 66.826 47.9174 66.9616 48.1257 67.056C48.3341 67.1504 48.5586 67.2017 48.7865 67.207H51.0096V59.5781H48.7865C48.5628 59.5742 48.3407 59.6165 48.1335 59.7025C47.9263 59.7885 47.7382 59.9165 47.5806 60.0787C47.423 60.2409 47.2991 60.434 47.2164 60.6464C47.1338 60.8588 47.094 61.0861 47.0994 61.3146Z" fill="#35AAF9"/>
<path d="M78.958 22.7051C77.7039 22.7051 75.6944 22.728 74.1689 22.7341L75.8101 25.7743L82.7333 25.7209C82.6533 25.3427 82.5524 24.9694 82.4311 24.6029C82.0516 23.4669 80.6758 22.7051 79.0001 22.7051H78.958Z" fill="#35AAF9"/>
<path d="M62.7402 33.572C59.5651 33.5688 56.4204 34.2055 53.4863 35.4458C50.5522 36.6861 47.8862 38.5056 45.641 40.8001C43.3958 43.0947 41.6154 45.8192 40.4018 48.8178C39.1882 51.8164 38.5652 55.0302 38.5684 58.2752C38.5684 71.8964 49.4118 82.9783 62.7402 82.9783C76.0687 82.9783 86.9121 71.8966 86.9121 58.2752C86.9121 51.7235 84.3654 45.4401 79.8323 40.8074C75.2992 36.1747 69.151 33.572 62.7402 33.572ZM80.8692 65.3889C80.8692 67.775 79.0289 69.7499 76.6942 69.7499H76.4258V71.0906C76.4258 73.8236 74.2677 76.1074 71.5934 76.1074H69.8612C69.6152 76.7554 69.1816 77.3113 68.6183 77.7008C68.055 78.0903 67.3888 78.2948 66.7087 78.2871H63.7661C63.3291 78.2906 62.8958 78.2057 62.491 78.0373C62.0863 77.8688 61.7182 77.6201 61.4081 77.3055C61.0979 76.9909 60.8517 76.6166 60.6838 76.2043C60.5159 75.7919 60.4295 75.3497 60.4297 74.9031V74.6488C60.4269 73.7403 60.7763 72.8676 61.4016 72.2218C62.027 71.576 62.8772 71.2097 63.7661 71.2031H66.7087C67.4131 71.1962 68.1008 71.4225 68.669 71.8481C69.2372 72.2737 69.6554 72.8758 69.861 73.5644H71.5934C72.8956 73.5644 73.9375 72.4213 73.9375 71.0906V69.7499H73.2058C72.8746 69.7414 72.5601 69.5994 72.331 69.3549C72.1018 69.1104 71.9765 68.7832 71.9824 68.4447V58.2586C71.981 58.0953 72.0119 57.9333 72.0732 57.7825C72.1345 57.6316 72.225 57.495 72.3392 57.3807C72.4535 57.2665 72.5891 57.177 72.738 57.1176C72.8869 57.0582 73.046 57.0301 73.2058 57.0351H73.9375V52.2285C73.9375 49.1936 72.7578 46.2829 70.6579 44.1369C68.558 41.9908 65.7099 40.7852 62.7402 40.7852C59.7705 40.7852 56.9225 41.9908 54.8226 44.1369C52.7227 46.2829 51.543 49.1936 51.543 52.2285V57.0351H52.2751C52.4348 57.0301 52.5939 57.0582 52.7428 57.1176C52.8917 57.177 53.0273 57.2665 53.1415 57.3807C53.2557 57.495 53.3461 57.6316 53.4074 57.7825C53.4687 57.9334 53.4995 58.0953 53.4981 58.2586V68.4447C53.5041 68.7832 53.3789 69.1104 53.1498 69.3549C52.9207 69.5994 52.6062 69.7414 52.2751 69.7499H48.7867C46.4518 69.7499 44.6113 67.775 44.6113 65.3889V61.3146C44.6063 60.7522 44.7107 60.1944 44.9186 59.6736C45.1265 59.1529 45.4336 58.6796 45.8222 58.2813C46.2108 57.8831 46.673 57.5678 47.1819 57.3538C47.6909 57.1399 48.2364 57.0315 48.7867 57.0351H49.0547V52.2285C49.0547 48.5191 50.4966 44.9616 53.0631 42.3387C55.6296 39.7158 59.1106 38.2422 62.7402 38.2422C66.3699 38.2422 69.8509 39.7158 72.4174 42.3387C74.9839 44.9616 76.4258 48.5191 76.4258 52.2285V57.0351H76.6942C77.2445 57.0316 77.7899 57.1399 78.2988 57.3539C78.8078 57.5679 79.2699 57.8832 79.6585 58.2814C80.047 58.6797 80.3541 59.1529 80.562 59.6737C80.7698 60.1944 80.8743 60.7522 80.8692 61.3146V65.3889Z" fill="#35AAF9"/>
<path d="M63.7787 73.7461H66.6785C66.9067 73.7461 67.1256 73.8388 67.287 74.0037C67.4484 74.1686 67.5391 74.3923 67.5391 74.6256V74.8645C67.5391 75.0978 67.4484 75.3215 67.2869 75.4865C67.1255 75.6515 66.9066 75.7441 66.6783 75.7441H63.7786C63.5503 75.7441 63.3314 75.6515 63.17 75.4865C63.0086 75.3216 62.918 75.0979 62.918 74.8646V74.6258C62.918 74.3925 63.0087 74.1687 63.1701 74.0037C63.3315 73.8388 63.5504 73.7461 63.7787 73.7461Z" fill="#35AAF9"/>
<path d="M76.6942 59.5781H74.4707V67.207H76.6942C76.922 67.2017 77.1465 67.1504 77.3548 67.056C77.5632 66.9616 77.7511 66.8259 77.9079 66.6569C78.0647 66.4879 78.1872 66.2889 78.2684 66.0713C78.3496 65.8537 78.3878 65.6218 78.3809 65.389V61.3146C78.3864 61.0861 78.3466 60.8588 78.2639 60.6465C78.1813 60.4341 78.0574 60.241 77.8999 60.0788C77.7423 59.9166 77.5543 59.7886 77.3471 59.7026C77.1399 59.6165 76.9178 59.5742 76.6942 59.5781Z" fill="#35AAF9"/>
</svg>
