<svg width="289" height="288" viewBox="0 0 289 288" fill="none" xmlns="http://www.w3.org/2000/svg">
<rect y="45" width="281" height="243" rx="10" fill="#F1F2FF"/>
<path d="M164.25 144.1C151.15 144.1 140.85 139.15 133.35 129.25C125.95 119.25 122.25 106 122.25 89.5C122.25 73 125.95 59.8 133.35 49.9C140.85 39.9 151.15 34.9 164.25 34.9C177.45 34.9 187.75 39.9 195.15 49.9C202.55 59.8 206.25 73 206.25 89.5C206.25 106 202.55 119.25 195.15 129.25C187.75 139.15 177.45 144.1 164.25 144.1ZM148.35 115.15C151.95 120.95 157.25 123.85 164.25 123.85C171.25 123.85 176.55 120.9 180.15 115C183.85 109.1 185.7 100.6 185.7 89.5C185.7 78.3 183.85 69.75 180.15 63.85C176.55 57.95 171.25 55 164.25 55C157.25 55 151.95 57.95 148.35 63.85C144.75 69.75 142.95 78.3 142.95 89.5C142.95 100.7 144.75 109.25 148.35 115.15ZM212.896 142V126.55L248.746 89.65C256.746 81.25 260.746 74.25 260.746 68.65C260.746 64.55 259.446 61.25 256.846 58.75C254.346 56.25 251.096 55 247.096 55C239.196 55 233.346 59.1 229.546 67.3L212.146 57.1C215.446 49.9 220.196 44.4 226.396 40.6C232.596 36.8 239.396 34.9 246.796 34.9C256.296 34.9 264.446 37.9 271.246 43.9C278.046 49.8 281.446 57.8 281.446 67.9C281.446 78.8 275.696 90 264.196 101.5L243.646 122.05H283.096V142H212.896Z" fill="white"/>
<g clip-path="url(#clip0)">
<path d="M193.124 216.214C192.659 214.028 193.726 211.812 195.72 210.804C213.366 201.886 225.036 186.425 225.036 168.844C225.036 146.96 206.954 128.364 181.773 121.581C149.527 123.073 123.968 143.872 123.968 169.315C123.968 195.727 151.51 217.138 185.484 217.138C185.567 217.138 185.651 217.138 185.734 217.137C187.41 217.132 188.966 218.01 189.804 219.461C190.537 220.732 191.269 221.791 192.17 222.894L194.377 220.822C193.819 218.966 193.351 217.279 193.124 216.214Z" fill="#FFE07D"/>
<path d="M218.968 209.437C235.841 200.91 247 186.126 247 169.315C247 142.903 219.458 121.492 185.484 121.492C180.869 121.492 176.375 121.89 172.051 122.639C199.564 127.403 220.134 146.49 220.134 169.315C220.134 186.126 208.974 200.91 192.101 209.437C190.194 210.401 189.174 212.52 189.619 214.61C190.232 217.491 191.139 220.291 192.17 222.894C201.05 233.888 217.375 236.894 224.148 237.683C225.362 237.825 226.195 236.498 225.535 235.47C223.018 231.549 218.367 223.455 216.485 214.609C216.041 212.52 217.061 210.401 218.968 209.437Z" fill="#FFD064"/>
<path d="M102.384 97.175C64.1049 102.123 35 127.972 35 159.134C35 173.929 41.579 187.529 52.5857 198.264C53.8796 199.526 54.3765 201.402 53.9007 203.146C50.481 215.691 43.0788 227.028 38.6201 233.083C40.1004 234.563 42.3036 235.062 44.275 234.357C55.4626 230.361 60.527 226.08 68.8364 217.233C70.9651 214.967 74.3024 214.329 77.128 215.626C79.0144 216.492 80.951 217.298 82.9323 218.044C85.3537 218.955 87.9569 219.393 90.5303 219.127C91.0856 219.07 91.6545 219.104 92.2148 219.237C95.5947 220.039 98.8605 220.636 102.413 221.089L117.798 220.593C150.208 211.632 173.414 187.58 173.414 159.31C173.414 130.158 148.738 105.491 114.741 97.2326L102.384 97.175Z" fill="#BABABA"/>
<path d="M66.4575 214.85C57.3775 224.517 52.1724 228.734 38.6205 233.083C38.0342 233.878 37.4967 234.587 37.0284 235.191C36.226 236.225 36.9841 237.726 38.2926 237.693C47.2359 237.47 72.3252 235.468 87.5163 220.532C88.7531 219.316 90.5278 218.836 92.2155 219.236C92.2118 219.229 92.2072 219.222 92.2035 219.215C86.036 217.756 80.182 215.739 74.7371 213.24C71.9157 211.945 68.5829 212.587 66.4575 214.85Z" fill="#969696"/>
<path d="M115.818 96.3059C111.24 96.3059 106.754 96.6065 102.385 97.1746C140.624 102.149 169.768 127.993 169.768 159.134C169.768 190.266 140.639 216.105 102.414 221.089C106.775 221.656 111.249 221.962 115.818 221.962C160.452 221.962 196.635 193.833 196.635 159.134C196.635 124.435 160.452 96.3059 115.818 96.3059Z" fill="#969696"/>
<path d="M66.0358 166.667C70.3924 166.667 73.9241 163.136 73.9241 158.779C73.9241 154.422 70.3924 150.891 66.0358 150.891C61.6792 150.891 58.1475 154.422 58.1475 158.779C58.1475 163.136 61.6792 166.667 66.0358 166.667Z" fill="#F0F7FF"/>
<path d="M97.6666 166.667C102.023 166.667 105.555 163.136 105.555 158.779C105.555 154.422 102.023 150.891 97.6666 150.891C93.31 150.891 89.7783 154.422 89.7783 158.779C89.7783 163.136 93.31 166.667 97.6666 166.667Z" fill="#F0F7FF"/>
<path d="M129.297 166.667C133.653 166.667 137.185 163.136 137.185 158.779C137.185 154.422 133.653 150.891 129.297 150.891C124.94 150.891 121.408 154.422 121.408 158.779C121.408 163.136 124.94 166.667 129.297 166.667Z" fill="#F0F7FF"/>
<path d="M160.927 166.667C165.284 166.667 168.816 163.136 168.816 158.779C168.816 154.422 165.284 150.891 160.927 150.891C156.571 150.891 153.039 154.422 153.039 158.779C153.039 163.136 156.571 166.667 160.927 166.667Z" fill="#F0F7FF"/>
<ellipse cx="95" cy="259" rx="74" ry="8" fill="url(#paint0_radial)" fill-opacity="0.1"/>
<ellipse cx="189" cy="259" rx="74" ry="8" fill="url(#paint1_radial)" fill-opacity="0.1"/>
</g>
<defs>
<radialGradient id="paint0_radial" cx="0" cy="0" r="1" gradientUnits="userSpaceOnUse" gradientTransform="translate(95 259) rotate(90) scale(8 74)">
<stop/>
<stop offset="1" stop-opacity="0"/>
</radialGradient>
<radialGradient id="paint1_radial" cx="0" cy="0" r="1" gradientUnits="userSpaceOnUse" gradientTransform="translate(189 259) rotate(90) scale(8 74)">
<stop/>
<stop offset="1" stop-opacity="0"/>
</radialGradient>
<clipPath id="clip0">
<rect width="212" height="212" fill="white" transform="translate(35 61)"/>
</clipPath>
</defs>
</svg>
