<svg width="109" height="76" viewBox="0 0 109 76" fill="none" xmlns="http://www.w3.org/2000/svg">
<path d="M13.5711 42.4219C13.0868 40.0781 13.2004 37.6527 13.9017 35.3625C14.603 33.0723 15.8702 30.9886 17.5901 29.2973C19.31 27.6061 21.4291 26.36 23.7581 25.6704C26.0871 24.9808 28.5536 24.8691 30.9372 25.3454V17.2639C27.4708 16.8218 23.9474 17.1682 20.6385 18.2762C17.3297 19.3842 14.3236 21.2243 11.852 23.6548C9.38031 26.0853 7.509 29.0412 6.3822 32.2949C5.25541 35.5486 4.9032 39.0133 5.35271 42.4219H13.5711ZM22.407 21.8578C22.7267 21.7186 23.0538 21.5846 23.3797 21.4593C23.48 21.4205 23.5872 21.4016 23.695 21.4035C23.8028 21.4055 23.9092 21.4284 24.008 21.4708C24.1069 21.5132 24.1962 21.5744 24.271 21.6508C24.3457 21.7273 24.4044 21.8174 24.4437 21.9162C24.483 22.0149 24.5021 22.1203 24.4999 22.2264C24.4977 22.3324 24.4743 22.4369 24.431 22.5341C24.3877 22.6312 24.3253 22.7189 24.2475 22.7923C24.1696 22.8657 24.0778 22.9233 23.9773 22.9617C23.674 23.0784 23.3692 23.2037 23.0715 23.333C22.8731 23.4163 22.6494 23.4195 22.4487 23.3418C22.248 23.2641 22.0865 23.1118 21.9991 22.9178C21.9118 22.7239 21.9057 22.5039 21.982 22.3056C22.0584 22.1072 22.2112 21.9464 22.4072 21.858L22.407 21.8578ZM14.695 27.1842C14.937 26.9356 15.1872 26.6886 15.4401 26.4514C15.5177 26.3774 15.6095 26.3192 15.7101 26.2802C15.8107 26.2412 15.9182 26.2221 16.0263 26.2241C16.1344 26.226 16.2411 26.249 16.3401 26.2917C16.4392 26.3343 16.5287 26.3959 16.6035 26.4727C16.6783 26.5495 16.7369 26.64 16.776 26.7392C16.815 26.8384 16.8338 26.9441 16.8311 27.0504C16.8284 27.1568 16.8044 27.2615 16.7605 27.3586C16.7165 27.4558 16.6534 27.5434 16.5748 27.6165C16.3394 27.8382 16.1061 28.0681 15.88 28.2999C15.7292 28.453 15.5229 28.5412 15.3062 28.5452C15.0895 28.5492 14.88 28.4687 14.7234 28.3213C14.5669 28.1739 14.476 27.9716 14.4707 27.7585C14.4654 27.5454 14.546 27.3389 14.695 27.1842ZM9.61764 34.9942C9.74514 34.6736 9.88166 34.3514 10.0233 34.0366C10.0656 33.9378 10.1275 33.8482 10.2053 33.7732C10.2832 33.6982 10.3754 33.6391 10.4767 33.5996C10.5781 33.56 10.6864 33.5407 10.7954 33.5428C10.9043 33.5448 11.0118 33.5682 11.1115 33.6116C11.2112 33.655 11.3011 33.7175 11.3759 33.7954C11.4508 33.8734 11.5091 33.9652 11.5474 34.0655C11.5857 34.1659 11.6034 34.2727 11.5992 34.3798C11.5951 34.4869 11.5693 34.5922 11.5233 34.6894C11.3913 34.9828 11.2641 35.2831 11.1453 35.5819C11.0658 35.7807 10.9093 35.9405 10.7101 36.026C10.5109 36.1115 10.2854 36.1158 10.083 36.038C9.88063 35.9601 9.71793 35.8065 9.63063 35.6108C9.54333 35.4151 9.53858 35.1933 9.6174 34.9942H9.61764Z" fill="#35AAF9"/>
<path d="M27.6788 40.0052C27.571 40.0054 27.4643 39.9846 27.3648 39.944C27.2652 39.9035 27.1748 39.844 27.0987 39.769L23.9652 36.6923C22.4294 38.4197 21.5108 40.5939 21.3496 42.8829H25.791C26.0086 42.8829 26.2172 42.9679 26.3711 43.1191C26.5249 43.2704 26.6113 43.4756 26.6113 43.6895C26.6113 43.9035 26.5249 44.1086 26.3711 44.2599C26.2172 44.4112 26.0086 44.4962 25.791 44.4962H21.3496C21.5333 46.7771 22.4492 48.9416 23.9651 50.6773L27.0987 47.5937C27.1745 47.5176 27.2649 47.4571 27.3646 47.4156C27.4643 47.3741 27.5714 47.3524 27.6797 47.3518C27.788 47.3513 27.8953 47.3718 27.9955 47.4122C28.0956 47.4527 28.1867 47.5122 28.2633 47.5875C28.3399 47.6627 28.4006 47.7521 28.4419 47.8505C28.4832 47.949 28.5043 48.0545 28.5039 48.161C28.5034 48.2674 28.4816 48.3728 28.4395 48.4709C28.3975 48.569 28.3361 48.658 28.2589 48.7326L25.1221 51.8122C26.8887 53.2972 29.0893 54.1922 31.4065 54.3679V50.0181C31.4065 49.8041 31.4929 49.599 31.6468 49.4477C31.8006 49.2964 32.0093 49.2114 32.2268 49.2114C32.4444 49.2114 32.653 49.2964 32.8069 49.4477C32.9607 49.599 33.0471 49.8041 33.0471 50.0181V54.3655C35.3631 54.1828 37.5606 53.2827 39.3237 51.7948L36.2112 48.7321C36.0574 48.5806 35.971 48.3752 35.9712 48.161C35.9714 47.9469 36.058 47.7417 36.2121 47.5904C36.3662 47.4391 36.5751 47.3542 36.7928 47.3544C37.0105 47.3545 37.2193 47.4397 37.3731 47.5912L40.4864 50.6565C41.9937 48.9252 42.9035 46.7683 43.085 44.4962H38.6816C38.4641 44.4962 38.2554 44.4112 38.1016 44.2599C37.9478 44.1086 37.8613 43.9035 37.8613 43.6895C37.8613 43.4756 37.9478 43.2704 38.1016 43.1191C38.2554 42.9679 38.4641 42.8829 38.6816 42.8829H43.085C42.9039 40.6078 41.9944 38.4476 40.4869 36.7125L37.3739 39.7716C37.2198 39.9228 37.0109 40.0077 36.7932 40.0075C36.5754 40.0074 36.3666 39.9221 36.2128 39.7706C36.0589 39.619 35.9726 39.4136 35.9728 39.1995C35.973 38.9853 36.0597 38.7801 36.2138 38.6288L39.3236 35.5655C37.5605 34.0775 35.3631 33.1775 33.0471 32.9949V37.3423C33.0471 37.5562 32.9607 37.7614 32.8069 37.9127C32.653 38.064 32.4444 38.1489 32.2268 38.1489C32.0093 38.1489 31.8006 38.064 31.6468 37.9127C31.4929 37.7614 31.4065 37.5562 31.4065 37.3423V32.9924C29.0893 33.1684 26.8887 34.0634 25.1221 35.5484L28.2565 38.6282C28.3711 38.7409 28.4492 38.8844 28.4809 39.0407C28.5127 39.1969 28.4966 39.3589 28.4348 39.5062C28.373 39.6536 28.2682 39.7796 28.1337 39.8684C27.9991 39.9572 27.8408 40.0048 27.6788 40.0052ZM32.2173 40.5689C32.8431 40.5689 33.4549 40.7513 33.9752 41.0932C34.4955 41.4351 34.9011 41.921 35.1406 42.4895C35.38 43.0581 35.4427 43.6836 35.3206 44.2872C35.1985 44.8907 34.8972 45.4451 34.4547 45.8802C34.0122 46.3154 33.4484 46.6117 32.8346 46.7317C32.2209 46.8518 31.5847 46.7902 31.0065 46.5547C30.4284 46.3192 29.9342 45.9204 29.5865 45.4088C29.2388 44.8971 29.0533 44.2956 29.0533 43.6802C29.0542 42.8553 29.3879 42.0644 29.981 41.4812C30.5742 40.8979 31.3785 40.5698 32.2173 40.5689Z" fill="#35AAF9"/>
<path d="M18.7625 30.4491C17.1207 32.0673 15.9446 34.0848 15.3542 36.2957C14.7637 38.5066 14.7801 40.8319 15.4016 43.0346C15.4354 43.1526 15.4407 43.2768 15.4168 43.3971C15.393 43.5175 15.3408 43.6307 15.2643 43.7276C15.1873 43.8252 15.0881 43.9038 14.9748 43.9572C14.8615 44.0106 14.7371 44.0373 14.6115 44.0353H9.60547C9.81137 56.1349 19.875 65.9093 32.2178 65.9093C44.6891 65.9093 54.8233 55.9379 54.8233 43.6746C54.8237 31.5375 44.8836 21.6472 32.5789 21.4448V26.3673C32.5815 26.4909 32.5546 26.6133 32.5003 26.7248C32.4461 26.8364 32.366 26.9338 32.2665 27.0094C32.1671 27.0849 32.0509 27.1365 31.9275 27.16C31.8041 27.1834 31.6768 27.1781 31.5559 27.1444C29.3167 26.5332 26.9528 26.5171 24.7053 27.0977C22.4577 27.6782 20.4071 28.8347 18.7625 30.4491ZM32.2176 31.3499H32.2327H32.2366C32.2388 31.3499 32.2408 31.3499 32.2429 31.3499C35.5007 31.3543 38.6279 32.6095 40.9582 34.8482C41.064 34.9125 41.1531 35.0003 41.2184 35.1045C43.4448 37.3557 44.7102 40.3598 44.7547 43.4998C44.7831 43.6184 44.7831 43.7419 44.7547 43.8606C44.7102 47.0003 43.4449 50.0042 41.2187 52.2554C41.1534 52.3595 41.0644 52.4472 40.9587 52.5115C38.6284 54.7502 35.5011 56.0055 32.2433 56.0099C32.2412 56.0099 32.2392 56.0099 32.2369 56.0099H32.2331H32.218C28.8924 56.0099 25.703 54.7109 23.3515 52.3986C21 50.0862 19.6789 46.95 19.6789 43.6799C19.6789 40.4097 21 37.2735 23.3515 34.9612C25.703 32.6489 28.8924 31.3498 32.218 31.3498L32.2176 31.3499Z" fill="#35AAF9"/>
<path d="M32.2168 45.1782C33.0582 45.1782 33.7402 44.5075 33.7402 43.6802C33.7402 42.8528 33.0582 42.1821 32.2168 42.1821C31.3754 42.1821 30.6934 42.8528 30.6934 43.6802C30.6934 44.5075 31.3754 45.1782 32.2168 45.1782Z" fill="#35AAF9"/>
<path d="M95.9829 7.125H48.0176L52.1467 12.6172H91.8538L95.9829 7.125Z" fill="#35AAF9"/>
<path d="M53.6758 14.6953L67.1701 33.0648C67.3034 33.2585 67.3749 33.49 67.3747 33.7272V47.6492L76.6247 52.8769V33.7272C76.6245 33.49 76.696 33.2585 76.8294 33.0648L90.3237 14.6953H53.6758Z" fill="#35AAF9"/>
<path d="M72.889 55.6534C72.8022 55.4886 72.6737 55.351 72.5171 55.2552C72.3604 55.1593 72.1815 55.1086 71.9991 55.1086C71.8168 55.1086 71.6378 55.1593 71.4811 55.2552C71.3245 55.351 71.196 55.4886 71.1092 55.6534L67.2956 62.893C66.7528 63.9348 66.5495 65.1279 66.7155 66.2972C66.8814 67.4664 67.4079 68.5503 68.2178 69.3896C69.1261 70.3224 70.3311 70.8883 71.6123 70.9836C72.8935 71.079 74.1653 70.6975 75.1952 69.909C76.225 69.1205 76.9441 67.9775 77.2209 66.6892C77.4977 65.4009 77.3137 64.0534 76.7026 62.893L72.889 55.6534Z" fill="#35AAF9"/>
</svg>
