<svg width="101" height="101" viewBox="0 0 101 101" fill="none" xmlns="http://www.w3.org/2000/svg">
<path d="M50.5492 70.5421C54.5132 70.5421 58.3881 69.3666 61.684 67.1643C64.9799 64.962 67.5487 61.8319 69.0657 58.1696C70.5826 54.5074 70.9794 50.4776 70.2061 46.5898C69.4327 42.702 67.5239 39.1309 64.7209 36.3279C61.918 33.525 58.3468 31.6162 54.459 30.8429C50.5712 30.0695 46.5414 30.4665 42.8792 31.9834C39.2169 33.5004 36.0868 36.0692 33.8845 39.3651C31.6823 42.6611 30.5068 46.536 30.5068 50.5C30.5129 55.8136 32.6265 60.9079 36.3839 64.6652C40.1412 68.4226 45.2355 70.5361 50.5492 70.5421ZM40.635 48.9218C40.7617 48.792 40.9127 48.6885 41.0794 48.6171C41.2462 48.5456 41.4253 48.5077 41.6067 48.5056C41.788 48.5034 41.968 48.5369 42.1364 48.6043C42.3048 48.6717 42.4582 48.7717 42.588 48.8984L47.9603 54.1437L58.4126 43.9389C58.542 43.8106 58.6956 43.7092 58.8643 43.6405C59.0331 43.5719 59.2138 43.5373 59.396 43.5388C59.5783 43.5403 59.7584 43.5778 59.926 43.6492C60.0937 43.7206 60.2455 43.8245 60.3728 43.9549C60.5001 44.0853 60.6003 44.2396 60.6677 44.4089C60.7351 44.5782 60.7683 44.7592 60.7655 44.9414C60.7626 45.1236 60.7237 45.3034 60.651 45.4705C60.5783 45.6376 60.4732 45.7886 60.3419 45.9149L48.9249 57.0614C48.667 57.3132 48.3208 57.4542 47.9603 57.4542C47.5998 57.4542 47.2536 57.3132 46.9957 57.0614L40.6585 50.8748C40.5287 50.7481 40.4252 50.5971 40.3537 50.4304C40.2823 50.2637 40.2444 50.0845 40.2422 49.9032C40.2401 49.7218 40.2736 49.5418 40.341 49.3734C40.4084 49.205 40.5083 49.0516 40.635 48.9218Z" fill="#35AAF9"/>
<path d="M22.5236 56.4969C23.2608 59.9016 24.6255 63.1393 26.5478 66.0445C26.7126 66.2917 26.7934 66.5854 26.778 66.882C26.7626 67.1787 26.652 67.4625 26.4626 67.6913L22.0567 73.008L28.0403 78.9917L33.3596 74.5863C33.5857 74.3991 33.8655 74.2889 34.1585 74.2715C34.4515 74.2541 34.7424 74.3305 34.989 74.4897C37.9076 76.4006 41.1479 77.7676 44.5532 78.5247C44.8377 78.5813 45.0965 78.7277 45.2914 78.9424C45.4864 79.1571 45.6072 79.4288 45.636 79.7174L46.3016 86.5996H54.7966L55.4622 79.7182C55.4907 79.4282 55.6111 79.1548 55.8059 78.9381C56.0007 78.7213 56.2597 78.5725 56.545 78.5133C59.9494 77.7784 63.1871 76.4159 66.0927 74.4956C66.3402 74.3312 66.6341 74.2511 66.9307 74.267C67.2274 74.283 67.511 74.3942 67.7394 74.5842L73.0589 78.9909L79.0416 73.008L74.6362 67.6889C74.4491 67.4629 74.3388 67.1831 74.3214 66.8901C74.3041 66.5972 74.3805 66.3063 74.5396 66.0597C76.4505 63.1411 77.8175 59.9009 78.5746 56.4955C78.6365 56.2096 78.7875 55.9507 79.006 55.7562C79.2245 55.5616 79.4991 55.4415 79.7902 55.4131L86.5996 54.7491V46.2525L79.6935 45.5869C79.4021 45.5588 79.1271 45.4387 78.9083 45.2441C78.6895 45.0495 78.5383 44.7903 78.4764 44.5041C77.7392 41.0994 76.3745 37.8617 74.4522 34.9565C74.2874 34.7093 74.2066 34.4156 74.222 34.119C74.2374 33.8223 74.348 33.5385 74.5374 33.3097L78.9479 27.9835L73.0512 22.0113L67.7386 26.4139C67.5126 26.6011 67.2327 26.7113 66.9398 26.7287C66.6468 26.7461 66.3558 26.6697 66.1092 26.5105C63.1907 24.5996 59.9504 23.2326 56.545 22.4755C56.2605 22.4189 56.0018 22.2725 55.8068 22.0578C55.6119 21.8431 55.4911 21.5714 55.4622 21.2828L54.7966 14.4004H46.3016L45.636 21.2818C45.6075 21.5718 45.4871 21.8452 45.2923 22.0619C45.0975 22.2787 44.8386 22.4275 44.5532 22.4867C41.1489 23.2216 37.9111 24.5841 35.0056 26.5044C34.7581 26.6688 34.4642 26.7489 34.1675 26.733C33.8708 26.717 33.5872 26.6058 33.3588 26.4158L28.0395 22.0091L22.0567 27.992L26.462 33.3111C26.6491 33.5371 26.7594 33.8169 26.7768 34.1099C26.7942 34.4028 26.7178 34.6937 26.5587 34.9403C24.6478 37.8589 23.2807 41.0991 22.5236 44.5045C22.4617 44.7907 22.3104 45.0498 22.0917 45.2444C21.8729 45.439 21.5979 45.559 21.3065 45.5871L14.4004 46.2525V54.7475L21.3065 55.4131C21.5981 55.4413 21.8732 55.5615 22.092 55.7563C22.3108 55.9511 22.4619 56.2105 22.5236 56.4969ZM50.5491 27.6961C55.0593 27.6961 59.4682 29.0336 63.2182 31.5393C66.9683 34.0451 69.8911 37.6066 71.617 41.7735C73.343 45.9403 73.7945 50.5254 72.9146 54.9489C72.0347 59.3725 69.8628 63.4357 66.6736 66.6249C63.4845 69.814 59.4212 71.9859 54.9977 72.8657C50.5742 73.7456 45.9891 73.294 41.8222 71.568C37.6553 69.8421 34.0939 66.9192 31.5882 63.1692C29.0824 59.4191 27.745 55.0102 27.745 50.5C27.7519 44.4541 30.1567 38.6578 34.4318 34.3827C38.7069 30.1077 44.5032 27.7029 50.5491 27.6961Z" fill="#35AAF9"/>
</svg>
