<svg width="99" height="82" viewBox="0 0 99 82" fill="none" xmlns="http://www.w3.org/2000/svg">
<path d="M32.2552 29.5234L33.1037 29.8645L33.3564 27.2266H32.001L32.1812 29.4106C32.1826 29.4328 32.19 29.4544 32.2029 29.4739C32.2157 29.4934 32.2336 29.5103 32.2552 29.5234Z" fill="#35AAF9"/>
<path d="M66.1654 30.1039L66.5643 29.7956C66.6571 29.717 66.7126 29.6134 66.7208 29.5037L66.9085 27.2266H65.083C65.2251 27.707 65.3845 28.1433 65.5614 28.5831L66.1654 30.1039Z" fill="#35AAF9"/>
<path d="M30.3574 66.8517C30.3574 66.2326 30.8882 65.664 31.6357 65.664H32.291V60.9037L30.7335 61.4769C29.485 61.9987 28.4205 62.7789 27.6432 63.7418C26.8659 64.7047 26.4021 65.8176 26.2969 66.9726V78.3163H30.3574V66.8517Z" fill="#35AAF9"/>
<path d="M28.2305 24.9844H62.7645C62.8716 24.9844 62.987 24.9073 63.1102 24.8883C63.4093 24.8417 63.7028 24.9844 63.9559 24.9844H70.7695V22.9023H28.2305V24.9844Z" fill="#35AAF9"/>
<path d="M59.3612 7.78137V8.0514C59.3613 10.4004 58.4762 12.6909 56.8294 14.6032C55.1825 16.5156 52.856 17.9545 50.1745 18.7192C49.8972 18.7986 49.5961 18.8006 49.3172 18.725L49.0411 18.6496C46.3045 17.9163 43.9196 16.4824 42.2299 14.5546C40.5401 12.6268 39.6328 10.3044 39.6386 7.92215V7.78554C37.8535 8.79017 36.2839 10.0349 34.9945 11.4683C32.6178 14.1464 31.2376 17.3412 31.0234 20.6602H67.9785C67.7697 17.336 66.3886 14.1355 64.0061 11.4549C62.7156 10.0247 61.1457 8.78306 59.3612 7.78137Z" fill="#35AAF9"/>
<path d="M53.1228 3.68359H45.8772L45.9849 4.54475C46.0189 4.81014 45.9372 5.07683 45.7546 5.29673C45.5721 5.51663 45.3007 5.67526 44.9893 5.744C44.0794 5.93377 43.194 6.1966 42.3457 6.52877V7.92213C42.3405 9.80634 43.0484 11.6445 44.3698 13.1782C45.6912 14.7119 47.5598 15.864 49.7127 16.4726C51.7586 15.8107 53.5158 14.6527 54.7543 13.1502C55.9928 11.6478 56.655 9.87066 56.6543 8.05138V6.52781C55.8059 6.19621 54.9205 5.93371 54.0107 5.744C53.6994 5.67516 53.4279 5.51656 53.2451 5.29672C53.0623 5.07689 52.9802 4.81025 53.0136 4.54475L53.1228 3.68359ZM52.1574 12.6523H47.3172C46.9582 12.6523 46.6139 12.5342 46.3601 12.324C46.1063 12.1137 45.9637 11.8286 45.9637 11.5313C45.9637 11.2339 46.1063 10.9488 46.3601 10.7385C46.6139 10.5283 46.9582 10.4102 47.3172 10.4102H52.1574C52.5163 10.4102 52.8606 10.5283 53.1144 10.7385C53.3683 10.9488 53.5109 11.2339 53.5109 11.5313C53.5109 11.8286 53.3683 12.1137 53.1144 12.324C52.8606 12.5342 52.5163 12.6523 52.1574 12.6523ZM53.5109 7.84766C53.5109 8.14499 53.3683 8.43014 53.1144 8.64039C52.8606 8.85064 52.5163 8.96875 52.1574 8.96875H47.3172C46.9582 8.96875 46.6139 8.85064 46.3601 8.64039C46.1063 8.43014 45.9637 8.14499 45.9637 7.84766C45.9637 7.55032 46.1063 7.26517 46.3601 7.05492C46.6139 6.84468 46.9582 6.72656 47.3172 6.72656H52.1574C52.5163 6.72656 52.8606 6.84468 53.1144 7.05492C53.3683 7.26517 53.5109 7.55032 53.5109 7.84766Z" fill="#35AAF9"/>
<path d="M33.0645 78.3164H65.9355V67.9062H33.0645V78.3164ZM61.875 69.573C61.875 69.2757 62.0176 68.9905 62.2714 68.7803C62.5253 68.57 62.8695 68.4519 63.2285 68.4519C63.5875 68.4519 63.9318 68.57 64.1856 68.7803C64.4394 68.9905 64.582 69.2757 64.582 69.573V70.5934C64.582 70.8907 64.4394 71.1758 64.1856 71.3861C63.9318 71.5963 63.5875 71.7144 63.2285 71.7144C62.8695 71.7144 62.5253 71.5963 62.2714 71.3861C62.0176 71.1758 61.875 70.8907 61.875 70.5934V69.573ZM34.418 69.573C34.418 69.2757 34.5606 68.9905 34.8144 68.7803C35.0682 68.57 35.4125 68.4519 35.7715 68.4519C36.1305 68.4519 36.4747 68.57 36.7286 68.7803C36.9824 68.9905 37.125 69.2757 37.125 69.573V70.5934C37.125 70.8907 36.9824 71.1758 36.7286 71.3861C36.4747 71.5963 36.1305 71.7144 35.7715 71.7144C35.4125 71.7144 35.0682 71.5963 34.8144 71.3861C34.5606 71.1758 34.418 70.8907 34.418 70.5934V69.573Z" fill="#35AAF9"/>
<path d="M56.2676 51.6049C51.9061 52.9593 47.102 52.9692 42.7324 51.6327V55.7993C44.8702 56.5608 47.1729 56.9535 49.5 56.9535C51.8271 56.9535 54.1298 56.5608 56.2676 55.7993V51.6049Z" fill="#35AAF9"/>
<path d="M66.1292 36.5441C66.1298 36.2805 66.2424 36.0254 66.4472 35.8235C66.652 35.6217 66.936 35.486 67.2495 35.4402C67.6851 35.3751 68.1 35.2369 68.4687 35.034C68.8374 34.8312 69.1521 34.5681 69.3935 34.2608C69.6349 33.9535 69.7978 33.6085 69.8723 33.2471C69.9468 32.8858 69.9313 32.5156 69.8266 32.1594C69.7631 31.9263 69.6402 31.7071 69.4661 31.5166C69.2921 31.326 69.071 31.1684 68.8175 31.0543C68.6971 31.1916 68.5612 31.319 68.4114 31.4348L66.8928 32.6089C66.5749 32.8557 66.1556 32.9931 65.7199 32.9933C65.5755 32.9932 65.4317 32.9782 65.2918 32.9486C65.0117 32.8901 64.7539 32.774 64.5424 32.6111C64.3309 32.4481 64.1725 32.2435 64.0819 32.0163L62.9933 29.2921C62.7068 28.6168 62.4742 27.9267 62.2972 27.2261H36.0723L35.6856 31.2606C35.652 31.62 35.457 31.956 35.1389 32.2021C34.8209 32.4482 34.403 32.5866 33.9678 32.5899C33.6939 32.5906 33.4237 32.5372 33.1798 32.434L31.0196 31.5167C30.7141 31.3862 30.4399 31.2107 30.2104 30.9987C29.9253 31.1061 29.674 31.2668 29.4763 31.468C29.2786 31.6693 29.1398 31.9057 29.0707 32.1587C29.0089 32.3684 28.9777 32.5835 28.9779 32.7994C28.9662 33.4263 29.2242 34.0363 29.7057 34.5202C30.1872 35.0041 30.8608 35.3304 31.6061 35.4406C31.9149 35.4881 32.193 35.6257 32.3898 35.8284C32.5866 36.0312 32.6892 36.2857 32.6788 36.5457V36.5683C32.6788 44.1874 40.2071 50.3861 49.4058 50.3861C58.6044 50.3861 66.1292 44.1871 66.1292 36.568V36.5441Z" fill="#35AAF9"/>
<path d="M62.6484 59.4521V65.6641H64.002V59.9469L62.6484 59.4521Z" fill="#35AAF9"/>
<path d="M72.7031 78.3163V66.9726C72.5979 65.8176 72.1341 64.7047 71.3568 63.7418C70.5795 62.7789 69.515 61.9987 68.2665 61.4769L66.709 60.9037V65.664H67.3643C68.1118 65.664 68.6426 66.2326 68.6426 66.8517V78.3163H72.7031Z" fill="#35AAF9"/>
<path d="M34.998 59.9469V65.6641H36.3516V59.4521L34.998 59.9469Z" fill="#35AAF9"/>
<path d="M39.0586 58.495V65.664H59.9414V58.495L57.7298 57.7292C55.1449 58.6953 52.3414 59.1948 49.5056 59.1948C46.6698 59.1948 43.8664 58.6953 41.2815 57.7292L39.0586 58.495Z" fill="#35AAF9"/>
</svg>
