<svg width="96" height="104" viewBox="0 0 96 104" fill="none" xmlns="http://www.w3.org/2000/svg">
<path d="M33.7713 63.5684L31.1035 75.5625H44.3375L33.7713 63.5684Z" fill="#35AAF9"/>
<path d="M52.4326 75.5625H82.6295L76.2453 60.7344H65.489L52.4326 75.5625Z" fill="#35AAF9"/>
<path d="M64.4724 21.921C60.1757 17.3605 54.4001 14.8063 48.3849 14.8063C42.3697 14.8063 36.5941 17.3605 32.2974 21.921C28.1741 26.3245 25.6805 32.2102 25.2868 38.4682C25.085 41.8637 25.555 45.2667 26.6653 48.4496C27.755 51.6331 29.5417 54.6449 31.9749 57.4074L32.4045 57.8906H32.4373V57.9788L48.3529 76.0378L64.3123 57.929V57.8906H64.3656L64.7951 57.4066C67.2283 54.6441 69.0139 51.6317 70.1047 48.4477C71.2151 45.2652 71.6851 41.8624 71.4832 38.4672C71.0894 32.2095 68.5957 26.3242 64.4724 21.921ZM48.3849 50.8525C41.9314 50.8525 36.681 45.1134 36.681 38.0589C36.681 31.0044 41.931 25.2657 48.3849 25.2657C54.8389 25.2657 60.0889 31.0048 60.0889 38.0589C60.0889 45.113 54.8387 50.8525 48.3851 50.8525H48.3849Z" fill="#35AAF9"/>
<path d="M48.3856 28.1094C43.3793 28.1094 39.3066 32.5726 39.3066 38.0588C39.3066 43.545 43.3793 48.0087 48.3856 48.0087C53.3918 48.0087 57.4645 43.5452 57.4645 38.0588C57.4645 32.5724 53.3916 28.1094 48.3856 28.1094Z" fill="#35AAF9"/>
<path d="M12.145 78.4062L7.49805 89.1719H20.3907L23.363 78.4062H12.145Z" fill="#35AAF9"/>
<path d="M64.3867 78.4062L67.359 89.1719H88.5017L83.8547 78.4062H64.3867Z" fill="#35AAF9"/>
<path d="M31.6154 61.1175L31.281 60.7344H19.7543L13.3701 75.5625H28.4033L31.6154 61.1175Z" fill="#35AAF9"/>
<path d="M49.9276 78.4062L49.3351 79.079C49.2126 79.2181 49.0652 79.3289 48.902 79.4045C48.7388 79.4802 48.5631 79.5192 48.3856 79.5192C48.2081 79.5192 48.0324 79.4802 47.8692 79.4045C47.706 79.3289 47.5587 79.2181 47.4361 79.079L46.8434 78.4062H26.1033L23.1309 89.1719H64.6197L61.6473 78.4062H49.9276Z" fill="#35AAF9"/>
</svg>
