<svg width="280" height="288" viewBox="0 0 280 288" fill="none" xmlns="http://www.w3.org/2000/svg">
<rect y="45" width="280" height="243" rx="10" fill="#F1F2FF"/>
<path d="M177.25 144.1C164.15 144.1 153.85 139.15 146.35 129.25C138.95 119.25 135.25 106 135.25 89.5C135.25 73 138.95 59.8 146.35 49.9C153.85 39.9 164.15 34.9 177.25 34.9C190.45 34.9 200.75 39.9 208.15 49.9C215.55 59.8 219.25 73 219.25 89.5C219.25 106 215.55 119.25 208.15 129.25C200.75 139.15 190.45 144.1 177.25 144.1ZM161.35 115.15C164.95 120.95 170.25 123.85 177.25 123.85C184.25 123.85 189.55 120.9 193.15 115C196.85 109.1 198.7 100.6 198.7 89.5C198.7 78.3 196.85 69.75 193.15 63.85C189.55 57.95 184.25 55 177.25 55C170.25 55 164.95 57.95 161.35 63.85C157.75 69.75 155.95 78.3 155.95 89.5C155.95 100.7 157.75 109.25 161.35 115.15ZM250.803 37H268.803V142H248.103V58.9L228.303 64.45L223.203 46.75L250.803 37Z" fill="white"/>
<path d="M223 199.383C223 206.204 221.386 212.664 218.205 218.581C215.218 224.132 210.893 228.992 205.69 232.637C200.509 236.268 194.496 238.664 188.306 239.573C186.366 239.857 184.425 240 182.493 240C177.844 240 173.235 239.179 168.729 237.542C148.874 230.328 130.444 218.581 115.432 203.568C100.419 188.556 88.6718 170.126 81.458 150.271C79.1406 143.892 78.4572 137.306 79.4275 130.694C80.3359 124.504 82.732 118.491 86.3628 113.31C90.0077 108.107 94.8675 103.782 100.419 100.795C106.336 97.6143 112.796 96 119.617 96C121.74 96 123.574 97.4821 124.018 99.5577L131.08 132.519C131.4 134.009 130.942 135.565 129.862 136.642L117.794 148.713C129.179 171.347 147.653 189.821 170.287 201.206L182.358 189.138C183.435 188.058 184.991 187.6 186.481 187.92L219.442 194.982C221.518 195.426 223 197.26 223 199.383Z" fill="#BABABA"/>
<path d="M109.211 106.406C102.391 106.406 95.9306 108.02 90.0133 111.201C88.7055 111.904 87.4343 112.683 86.2109 113.532C86.2587 113.457 86.3122 113.383 86.3628 113.31C90.0077 108.107 94.8675 103.782 100.419 100.795C106.336 97.6143 112.796 96 119.617 96C121.74 96 123.574 97.4821 124.018 99.5577L131.08 132.519C131.4 134.009 130.942 135.565 129.862 136.642L119.456 147.048C120.536 145.971 120.995 144.415 120.674 142.925L113.612 109.964C113.168 107.888 111.334 106.406 109.211 106.406Z" fill="#969696"/>
<path d="M170.287 201.206L164.318 207.175C161.611 209.882 157.43 210.413 154.111 208.505C136 198.092 120.908 183 110.495 164.888C108.587 161.57 109.118 157.388 111.825 154.682L117.794 148.712C129.179 171.347 147.653 189.821 170.287 201.206Z" fill="#969696"/>
<path d="M223 199.384C223 206.204 221.386 212.664 218.205 218.581C215.218 224.133 210.892 228.992 205.69 232.637C205.616 232.688 205.543 232.741 205.467 232.789C206.317 231.566 207.096 230.294 207.799 228.987C210.98 223.069 212.594 216.609 212.594 209.789C212.594 207.666 211.112 205.832 209.036 205.388L176.075 198.326C174.585 198.005 173.029 198.464 171.952 199.544L182.358 189.138C183.435 188.058 184.99 187.6 186.481 187.92L219.442 194.982C221.518 195.426 223 197.26 223 199.384Z" fill="#969696"/>
<ellipse cx="159" cy="260.5" rx="80" ry="8.5" fill="url(#paint0_radial)" fill-opacity="0.1"/>
<defs>
<radialGradient id="paint0_radial" cx="0" cy="0" r="1" gradientUnits="userSpaceOnUse" gradientTransform="translate(159 260.5) rotate(90) scale(8.5 80)">
<stop/>
<stop offset="1" stop-opacity="0"/>
</radialGradient>
</defs>
</svg>
