<svg width="80" height="80" viewBox="0 0 80 80" fill="none" xmlns="http://www.w3.org/2000/svg">
<path d="M43.4722 5.79883C43.1821 5.79883 42.9039 5.91406 42.6988 6.11918C42.4937 6.3243 42.3784 6.6025 42.3784 6.89258C42.3784 7.18266 42.4937 7.46086 42.6988 7.66598C42.9039 7.87109 43.1821 7.98633 43.4722 7.98633C61.1252 7.98633 75.4858 22.3476 75.4858 40.0001C75.4858 57.6526 61.1252 71.9871 43.4722 71.9871C35.8212 72.0041 28.4185 69.2732 22.6116 64.2915C16.8047 59.3097 12.9797 52.4084 11.833 44.8438H18.2212C18.4151 44.8498 18.6069 44.8025 18.7758 44.7071C18.9447 44.6117 19.0842 44.4719 19.1792 44.3028C19.2742 44.1337 19.3211 43.9418 19.3147 43.748C19.3084 43.5541 19.249 43.3657 19.1431 43.2032L11.7433 31.5938C11.6439 31.4392 11.5072 31.3121 11.3457 31.2243C11.1843 31.1364 11.0033 31.0906 10.8195 31.0911C10.6357 31.0916 10.455 31.1384 10.294 31.2271C10.133 31.3158 9.99699 31.4437 9.89844 31.5988L2.49828 43.2151C2.39315 43.3756 2.33416 43.5619 2.32773 43.7537C2.32131 43.9454 2.36772 44.1353 2.46187 44.3024C2.55763 44.4711 2.69743 44.6106 2.86633 44.706C3.03524 44.8013 3.22688 44.849 3.42078 44.8438H9.62125C10.5503 51.335 13.3258 57.4223 17.6172 62.3803C21.9087 67.3384 27.535 70.9582 33.8258 72.8085C40.1167 74.6588 46.8069 74.6615 53.0993 72.8164C59.3916 70.9712 65.0209 67.356 69.3164 62.4015C73.6118 57.4469 76.3924 51.3619 77.3267 44.8715C78.261 38.3811 77.3097 31.7589 74.5862 25.7939C71.8627 19.8289 67.4817 14.7727 61.9652 11.2276C56.4488 7.68254 50.0295 5.7981 43.4722 5.79883Z" fill="#35AAF9"/>
<path d="M28.5938 45.8378V48.2628C28.5938 48.7878 29.2247 49.0626 29.7248 49.0626H38.625C39.075 49.0626 39.5 48.4908 39.5 47.8658C39.5 47.2408 39.075 46.7189 38.625 46.7189H31.25V45.8378C31.25 42.9628 39.3627 41.2128 39.3627 35.8378C39.3627 32.8378 36.9187 30.8628 34.0189 30.8628C31.2939 30.8628 28.897 32.6128 28.897 35.2878C28.897 36.4128 29.3986 36.7629 30.0986 36.7629C30.9736 36.7629 31.4994 36.2629 31.4994 35.7629C31.4994 34.0629 32.6244 33.288 34.0248 33.288C35.9248 33.288 36.747 34.6881 36.747 35.9129C36.7467 39.7626 28.5938 41.7876 28.5938 45.8378Z" fill="#35AAF9"/>
<path d="M48.2748 31.8873C48.2748 31.2623 47.4498 30.8623 46.9498 30.8623C46.709 30.8614 46.4729 30.929 46.2693 31.0575C46.0656 31.1859 45.9027 31.3697 45.7998 31.5873L39.7496 43.5125C39.6541 43.6734 39.6024 43.8566 39.5996 44.0437C39.5996 44.6437 39.9996 45 40.5246 45H46.7184V48.2626C46.7184 48.8378 47.3715 49.1376 48.0465 49.1376C48.6965 49.1376 49.3746 48.8378 49.3746 48.2626V45H50.5498C51.0249 45 51.4499 44.3625 51.4499 43.7625C51.4499 43.1375 51.1498 42.5 50.5498 42.5H49.3746V39.1125C49.3746 38.4875 48.6965 38.2375 48.0465 38.2375C47.3715 38.2375 46.7184 38.4875 46.7184 39.1125V42.5H42.9996L48.1498 32.2561C48.2209 32.1452 48.2638 32.0186 48.2748 31.8873Z" fill="#35AAF9"/>
<path d="M52.1798 24.7988C51.702 24.7988 51.4062 25.0146 51.4062 25.3229V35.9118C51.4062 36.1738 51.702 36.4513 52.1798 36.4513C52.6114 36.4513 52.9688 36.1738 52.9688 35.9118V32.0893C52.9623 31.8837 52.9967 31.6788 53.0701 31.4866C53.1434 31.2944 53.2541 31.1186 53.3959 30.9695C53.5376 30.8204 53.7076 30.7009 53.8958 30.618C54.0841 30.535 54.287 30.4903 54.4927 30.4863C55.3405 30.4863 56.0938 31.2879 56.0938 32.0893V35.9118C56.0938 36.2663 56.4973 36.4513 56.8673 36.4513C57.2681 36.4513 57.6562 36.2663 57.6562 35.9118V32.0893C57.6562 30.4248 56.4062 29.0529 54.958 29.0529C54.5507 29.0462 54.1494 29.1521 53.7984 29.3588C53.4474 29.5656 53.1603 29.8653 52.9688 30.2248V25.3229C52.9688 25.0146 52.6114 24.7988 52.1798 24.7988Z" fill="#35AAF9"/>
<path d="M60.1013 29.1453C59.6389 29.1453 59.375 29.3611 59.375 29.6694V35.9117C59.375 36.1738 59.6708 36.4512 60.1331 36.4512C60.5955 36.4512 60.9375 36.1738 60.9375 35.9117V32.752C60.9375 31.3494 61.8562 30.4687 62.7969 30.4687H63.29C63.6137 30.4687 63.9066 30.1586 63.9066 29.758C63.9136 29.5848 63.8533 29.4156 63.7383 29.2859C63.6233 29.1562 63.4625 29.0761 63.2897 29.0625H62.7969C62.3768 29.0773 61.9683 29.2043 61.6139 29.4303C61.2595 29.6562 60.972 29.9729 60.7812 30.3475V29.6694C60.7812 29.3611 60.502 29.1453 60.1013 29.1453Z" fill="#35AAF9"/>
</svg>
