<svg width="23" height="24" viewBox="0 0 23 24" fill="none" xmlns="http://www.w3.org/2000/svg">
<path d="M10.76 14.9L10.38 9V5H12.48V9L12.1 14.9H10.76ZM11.42 19.22C11.06 19.22 10.7533 19.0933 10.5 18.84C10.2467 18.5867 10.12 18.28 10.12 17.92C10.12 17.56 10.2467 17.2533 10.5 17C10.7533 16.7467 11.06 16.62 11.42 16.62C11.7933 16.62 12.1 16.7467 12.34 17C12.5933 17.2533 12.72 17.56 12.72 17.92C12.72 18.28 12.5933 18.5867 12.34 18.84C12.1 19.0933 11.7933 19.22 11.42 19.22Z" fill="#35AAF9"/>
<circle cx="11.5" cy="11.5" r="11" stroke="#35AAF9"/>
</svg>
