<svg width="25" height="25" viewBox="0 0 25 25" fill="none" xmlns="http://www.w3.org/2000/svg">
<path d="M12.2884 0.769043C7.79627 0.769043 4.1416 4.42371 4.1416 8.9158C4.1416 14.5619 12.2964 24.2065 12.2964 24.2065C12.2964 24.2065 20.4351 14.2842 20.4351 8.9158C20.4351 4.42371 16.7806 0.769043 12.2884 0.769043ZM14.7464 11.3012C14.0686 11.9788 13.1786 12.3177 12.2884 12.3177C11.3983 12.3177 10.5079 11.9788 9.83046 11.3012C8.47505 9.94592 8.47505 7.74064 9.83046 6.38523C10.4868 5.72863 11.3598 5.36699 12.2884 5.36699C13.2169 5.36699 14.0898 5.72877 14.7464 6.38523C16.1018 7.74064 16.1018 9.94592 14.7464 11.3012Z" fill="white"/>
</svg>
