<svg width="108" height="80" viewBox="0 0 108 80" fill="none" xmlns="http://www.w3.org/2000/svg">
<path d="M59.4129 49.4474H83.3918V51.9873H61.9905L59.4129 49.4474Z" fill="url(#paint0_linear)"/>
<path d="M62.506 52.514H87.5084V55.0695H67.0432L62.506 52.514Z" fill="url(#paint1_linear)"/>
<path d="M25.5325 17.8857H82.3551V20.4858H25.5325V17.8857Z" fill="url(#paint2_linear)"/>
<path d="M46.1384 48.1697H41.3699V21.6017H46.1384V48.1697Z" fill="url(#paint3_linear)"/>
<path d="M38.7924 48.4252H34.0239V21.6017H38.7924V48.4252Z" fill="url(#paint4_linear)"/>
<path d="M31.4463 49.3197H26.6778V21.6017H31.4463V49.3197Z" fill="url(#paint5_linear)"/>
<path d="M61.8855 21.674H66.5993V48.3011H61.8855V21.674Z" fill="url(#paint6_linear)"/>
<path d="M69.2076 21.7295H73.9761V48.2975H69.2076V21.7295Z" fill="url(#paint7_linear)"/>
<path d="M76.4248 21.7295H81.1933V48.2975H76.4248V21.7295Z" fill="url(#paint8_linear)"/>
<path d="M54.2578 26.9592C57.0337 26.9592 59.284 29.1903 59.284 31.9424V49.5752H54.2578V26.9592Z" fill="url(#paint9_linear)"/>
<path d="M53.3556 26.9592C50.5797 26.9592 48.3294 29.1903 48.3294 31.9424V48.6808H53.3556V26.9592Z" fill="url(#paint10_linear)"/>
<path d="M53.9438 7.03057e-05L88.9413 17.078H18.9463L53.9438 7.03057e-05Z" fill="url(#paint11_linear)"/>
<path d="M81.8121 66.052C82.5183 65.1997 83.4335 64.5236 84.4773 64.0829C85.5212 63.6423 86.6619 63.4507 87.7993 63.5247C88.9368 63.5988 90.0364 63.9364 91.0016 64.5078C91.9668 65.0793 92.7682 65.8672 93.3355 66.8024L87.8929 66.8147C87.6622 66.8168 87.4413 66.9054 87.2785 67.0611L84.6565 69.5465C84.4925 69.702 84.4 69.9125 84.3994 70.1318C84.3989 70.3511 84.4902 70.5613 84.6534 70.7159L87.2624 73.189C87.4256 73.3436 87.6473 73.4302 87.8786 73.4296L93.3187 73.4197C92.7464 74.3584 91.9405 75.1507 90.9716 75.7272C90.0028 76.3036 88.9007 76.6466 87.762 76.7259C86.6233 76.8053 85.4829 76.6186 84.4408 76.1823C83.3987 75.746 82.4868 75.0733 81.7851 74.2234C81.3812 73.7249 80.8222 73.0773 80.4221 72.698C79.78 71.9695 79.0711 71.2552 78.4065 71.2586H27.625C26.5383 72.0066 25.918 72.6186 25.5512 72.9621C25.1797 73.31 24.8401 73.6163 24.1293 74.3148C23.2799 75.1495 22.5077 75.8401 21.4645 76.2796C20.4213 76.7191 19.2816 76.9101 18.1452 76.8358C17.0088 76.7616 15.9103 76.4244 14.9458 75.8538C13.9813 75.2832 13.1802 74.4965 12.6127 73.5626L18.0552 73.5491C18.2861 73.5474 18.5073 73.459 18.6703 73.3033L21.2923 70.8179C21.4563 70.6625 21.5488 70.4519 21.5493 70.2326C21.5499 70.0133 21.4586 69.8032 21.2954 69.6485L18.6864 67.1755C18.5232 67.0208 18.3015 66.9343 18.0702 66.9348L12.6301 66.9448C13.2024 66.0061 14.0083 65.2137 14.9772 64.6372C15.946 64.0608 17.0481 63.7178 18.1868 63.6385C19.3255 63.5591 20.4659 63.7458 21.508 64.1821C22.5501 64.6185 23.462 65.2911 24.1637 66.141C24.5673 66.6398 24.7316 66.9119 25.3502 67.4102C25.9687 67.9086 26.8007 68.7062 27.5408 68.7086H78.4065C79.0696 68.7071 80.0054 67.783 80.4027 67.4063C80.8001 67.0297 81.4065 66.5511 81.8121 66.052Z" fill="url(#paint12_linear)"/>
<path d="M35.6316 60.8075H38.8229C38.8229 60.8075 40.2767 64.5296 41.4277 64.8732C42.5788 65.2169 74.9042 66.2785 74.9042 66.2785C74.9042 66.2785 42.8329 67.171 40.4842 66.4025C38.1355 65.634 35.6316 60.8075 35.6316 60.8075Z" fill="url(#paint13_linear)"/>
<path d="M9.39169 66.7143C9.39169 66.7143 12.1899 60.9916 18.5119 60.9916C24.8338 60.9916 27.8565 66.7143 27.8565 66.7143C27.442 65.2904 26.7692 63.9534 25.8713 62.7686C25.0312 61.6259 23.9205 60.7058 22.6369 60.0897C21.3534 59.4737 19.9367 59.1804 18.5119 59.2361C10.9993 59.3305 9.39169 66.7143 9.39169 66.7143Z" fill="url(#paint14_linear)"/>
<path d="M78.1503 66.7144C78.1503 66.7144 80.9951 60.9417 87.3163 60.9417C93.6376 60.9417 96.5967 66.7144 96.5967 66.7144C96.5967 66.7144 94.5374 59.337 87.3163 59.3489C79.8038 59.444 78.1503 66.7144 78.1503 66.7144Z" fill="url(#paint15_linear)"/>
<path d="M22.5801 55.3434L68.7732 58.8688C68.7732 58.8688 51.6945 59.2132 30.8753 59.3742C32.7392 62.3137 30.8753 65.883 30.8753 65.883C30.8753 65.883 30.9685 61.1813 28.298 58.7164C26.6473 57.2127 24.7005 56.0641 22.5801 55.3434Z" fill="url(#paint16_linear)"/>
<path d="M2.65371 65.8824C2.65371 65.8824 0.703058 57.6114 14.8968 55.348C23.5597 53.9899 32.3734 53.8599 41.0731 54.9622C41.0731 54.9622 30.2825 53.6444 25.3162 52.9005C24.0854 51.3208 24.5399 50.62 24.5399 50.62C24.5399 50.62 38.5261 47.6471 49.0141 48.7305C55.2637 49.3637 61.2305 51.6365 66.3003 55.3155L59.7165 54.6156L58.5168 52.3537C58.5168 52.3537 55.6741 50.8658 54.439 51.7519C53.204 52.6379 54.439 55.3213 54.439 55.3213C60.2165 56.128 66.0374 56.5905 71.8707 56.7064C81.1638 56.8597 83.6684 57.4657 90.1118 58.736C92.8576 59.3004 95.4612 60.4058 97.7683 61.9866C100.075 63.5674 102.039 65.5913 103.543 67.9387H108C108 67.9387 101.864 59.8318 91.6157 57.3003C85.1542 55.7616 78.5126 55.097 71.8714 55.3241C71.8714 55.3241 59.9671 46.5215 49.0134 46.0855C38.0597 45.6495 31.9741 46.8716 23.8843 48.9376C15.7945 51.0037 5.97983 53.5961 1.68615 56.6363C-2.60754 59.6766 2.65371 65.8824 2.65371 65.8824Z" fill="url(#paint17_linear)"/>
<path d="M29.5606 79.8802H31.0717L29.0166 73.8876H27.2551L25.2 79.8802H26.7111L27.0133 78.9384H29.2584L29.5606 79.8802ZM27.4278 77.6543L28.1358 75.4542L28.8439 77.6543H27.4278Z" fill="url(#paint18_linear)"/>
<path d="M35.3346 76.7726C35.6627 76.4901 35.8613 76.0963 35.8613 75.5997C35.8613 74.5639 35.0065 73.8876 33.953 73.8876H31.5871V79.8802H34.1257C35.2051 79.8802 36.0772 79.1867 36.0772 78.1252C36.0772 77.5174 35.7836 77.0551 35.3346 76.7726ZM33.953 75.1717C34.2725 75.1717 34.4798 75.3943 34.4798 75.7024C34.4798 76.0106 34.2639 76.2332 33.953 76.2332H32.9687V75.1717H33.953ZM34.1257 78.596H32.9687V77.4489H34.1257C34.4711 77.4489 34.6956 77.6886 34.6956 78.0224C34.6956 78.3563 34.4711 78.596 34.1257 78.596Z" fill="url(#paint19_linear)"/>
<path d="M40.6544 73.8876H36.1642V75.2059H37.7185V79.8802H39.1001V75.2059H40.6544V73.8876Z" fill="url(#paint20_linear)"/>
<path d="M43.7974 80C45.533 80 46.9405 78.6474 46.9405 76.8839C46.9405 75.1203 45.533 73.7677 43.7974 73.7677C42.0618 73.7677 40.6544 75.1203 40.6544 76.8839C40.6544 78.6474 42.0618 80 43.7974 80ZM43.7974 78.6645C42.8131 78.6645 42.0359 77.954 42.0359 76.8839C42.0359 75.8137 42.8131 75.1032 43.7974 75.1032C44.7818 75.1032 45.5589 75.8137 45.5589 76.8839C45.5589 77.954 44.7818 78.6645 43.7974 78.6645Z" fill="url(#paint21_linear)"/>
<path d="M50.6024 80C51.7077 80 52.6748 79.4607 53.1929 78.6131L52.0013 77.9283C51.7422 78.3906 51.2155 78.6645 50.6024 78.6645C49.5317 78.6645 48.8409 77.954 48.8409 76.8839C48.8409 75.8137 49.5317 75.1032 50.6024 75.1032C51.2155 75.1032 51.7336 75.3771 52.0013 75.8394L53.1929 75.1546C52.6662 74.307 51.6991 73.7677 50.6024 73.7677C48.7805 73.7677 47.4593 75.1203 47.4593 76.8839C47.4593 78.6474 48.7805 80 50.6024 80Z" fill="url(#paint22_linear)"/>
<path d="M55.2219 78.5618V77.5002H57.3807V76.199H55.2219V75.2059H57.5965V73.8876H53.8404V79.8802H57.6397V78.5618H55.2219Z" fill="url(#paint23_linear)"/>
<path d="M60.7074 73.8876H58.4192V79.8802H59.8008V77.9968H60.7074C61.899 77.9968 62.823 77.0807 62.823 75.9422C62.823 74.8036 61.899 73.8876 60.7074 73.8876ZM60.7074 76.7126H59.8008V75.1717H60.7074C61.1305 75.1717 61.4414 75.5056 61.4414 75.9422C61.4414 76.3788 61.1305 76.7126 60.7074 76.7126Z" fill="url(#paint24_linear)"/>
<path d="M67.2599 76.7726C67.5881 76.4901 67.7867 76.0963 67.7867 75.5997C67.7867 74.5639 66.9318 73.8876 65.8784 73.8876H63.5124V79.8802H66.051C67.1304 79.8802 68.0025 79.1867 68.0025 78.1252C68.0025 77.5174 67.7089 77.0551 67.2599 76.7726ZM65.8784 75.1717C66.1978 75.1717 66.4051 75.3943 66.4051 75.7024C66.4051 76.0106 66.1892 76.2332 65.8784 76.2332H64.894V75.1717H65.8784ZM66.051 78.596H64.894V77.4489H66.051C66.3964 77.4489 66.6209 77.6886 66.6209 78.0224C66.6209 78.3563 66.3964 78.596 66.051 78.596Z" fill="url(#paint25_linear)"/>
<path d="M72.0575 79.8802H73.4391V73.8876H72.4029L70.0715 77.1407V73.8876H68.6899V79.8802H69.7261L72.0575 76.627V79.8802Z" fill="url(#paint26_linear)"/>
<path d="M77.3587 80C78.4639 80 79.431 79.4607 79.9491 78.6131L78.7575 77.9283C78.4984 78.3906 77.9717 78.6645 77.3587 78.6645C76.2879 78.6645 75.5971 77.954 75.5971 76.8839C75.5971 75.8137 76.2879 75.1032 77.3587 75.1032C77.9717 75.1032 78.4898 75.3771 78.7575 75.8394L79.9491 75.1546C79.4224 74.307 78.4553 73.7677 77.3587 73.7677C75.5367 73.7677 74.2156 75.1203 74.2156 76.8839C74.2156 78.6474 75.5367 80 77.3587 80Z" fill="url(#paint27_linear)"/>
<defs>
<linearGradient id="paint0_linear" x1="8.31265" y1="-3.95737" x2="124.483" y2="-15.7635" gradientUnits="userSpaceOnUse">
<stop stop-color="#35AAF9"/>
<stop offset="1"/>
</linearGradient>
<linearGradient id="paint1_linear" x1="8.31265" y1="-3.95737" x2="124.483" y2="-15.7635" gradientUnits="userSpaceOnUse">
<stop stop-color="#35AAF9"/>
<stop offset="1"/>
</linearGradient>
<linearGradient id="paint2_linear" x1="8.31265" y1="-3.95737" x2="124.483" y2="-15.7635" gradientUnits="userSpaceOnUse">
<stop stop-color="#35AAF9"/>
<stop offset="1"/>
</linearGradient>
<linearGradient id="paint3_linear" x1="8.31265" y1="-3.95737" x2="124.483" y2="-15.7635" gradientUnits="userSpaceOnUse">
<stop stop-color="#35AAF9"/>
<stop offset="1"/>
</linearGradient>
<linearGradient id="paint4_linear" x1="8.31265" y1="-3.95737" x2="124.483" y2="-15.7635" gradientUnits="userSpaceOnUse">
<stop stop-color="#35AAF9"/>
<stop offset="1"/>
</linearGradient>
<linearGradient id="paint5_linear" x1="8.31265" y1="-3.95737" x2="124.483" y2="-15.7635" gradientUnits="userSpaceOnUse">
<stop stop-color="#35AAF9"/>
<stop offset="1"/>
</linearGradient>
<linearGradient id="paint6_linear" x1="8.31265" y1="-3.95737" x2="124.483" y2="-15.7635" gradientUnits="userSpaceOnUse">
<stop stop-color="#35AAF9"/>
<stop offset="1"/>
</linearGradient>
<linearGradient id="paint7_linear" x1="8.31265" y1="-3.95737" x2="124.483" y2="-15.7635" gradientUnits="userSpaceOnUse">
<stop stop-color="#35AAF9"/>
<stop offset="1"/>
</linearGradient>
<linearGradient id="paint8_linear" x1="8.31265" y1="-3.95737" x2="124.483" y2="-15.7635" gradientUnits="userSpaceOnUse">
<stop stop-color="#35AAF9"/>
<stop offset="1"/>
</linearGradient>
<linearGradient id="paint9_linear" x1="8.31265" y1="-3.95737" x2="124.483" y2="-15.7635" gradientUnits="userSpaceOnUse">
<stop stop-color="#35AAF9"/>
<stop offset="1"/>
</linearGradient>
<linearGradient id="paint10_linear" x1="8.31265" y1="-3.95737" x2="124.483" y2="-15.7635" gradientUnits="userSpaceOnUse">
<stop stop-color="#35AAF9"/>
<stop offset="1"/>
</linearGradient>
<linearGradient id="paint11_linear" x1="8.31265" y1="-3.95737" x2="124.483" y2="-15.7635" gradientUnits="userSpaceOnUse">
<stop stop-color="#35AAF9"/>
<stop offset="1"/>
</linearGradient>
<linearGradient id="paint12_linear" x1="8.31265" y1="-3.95737" x2="124.483" y2="-15.7635" gradientUnits="userSpaceOnUse">
<stop stop-color="#35AAF9"/>
<stop offset="1"/>
</linearGradient>
<linearGradient id="paint13_linear" x1="8.31265" y1="-3.95737" x2="124.483" y2="-15.7635" gradientUnits="userSpaceOnUse">
<stop stop-color="#35AAF9"/>
<stop offset="1"/>
</linearGradient>
<linearGradient id="paint14_linear" x1="8.31265" y1="-3.95737" x2="124.483" y2="-15.7635" gradientUnits="userSpaceOnUse">
<stop stop-color="#35AAF9"/>
<stop offset="1"/>
</linearGradient>
<linearGradient id="paint15_linear" x1="8.31265" y1="-3.95737" x2="124.483" y2="-15.7635" gradientUnits="userSpaceOnUse">
<stop stop-color="#35AAF9"/>
<stop offset="1"/>
</linearGradient>
<linearGradient id="paint16_linear" x1="8.31265" y1="-3.95737" x2="124.483" y2="-15.7635" gradientUnits="userSpaceOnUse">
<stop stop-color="#35AAF9"/>
<stop offset="1"/>
</linearGradient>
<linearGradient id="paint17_linear" x1="8.31265" y1="-3.95737" x2="124.483" y2="-15.7635" gradientUnits="userSpaceOnUse">
<stop stop-color="#35AAF9"/>
<stop offset="1"/>
</linearGradient>
<linearGradient id="paint18_linear" x1="8.31265" y1="-3.95737" x2="124.483" y2="-15.7635" gradientUnits="userSpaceOnUse">
<stop stop-color="#35AAF9"/>
<stop offset="1"/>
</linearGradient>
<linearGradient id="paint19_linear" x1="8.31265" y1="-3.95737" x2="124.483" y2="-15.7635" gradientUnits="userSpaceOnUse">
<stop stop-color="#35AAF9"/>
<stop offset="1"/>
</linearGradient>
<linearGradient id="paint20_linear" x1="8.31265" y1="-3.95737" x2="124.483" y2="-15.7635" gradientUnits="userSpaceOnUse">
<stop stop-color="#35AAF9"/>
<stop offset="1"/>
</linearGradient>
<linearGradient id="paint21_linear" x1="8.31265" y1="-3.95737" x2="124.483" y2="-15.7635" gradientUnits="userSpaceOnUse">
<stop stop-color="#35AAF9"/>
<stop offset="1"/>
</linearGradient>
<linearGradient id="paint22_linear" x1="8.31265" y1="-3.95737" x2="124.483" y2="-15.7635" gradientUnits="userSpaceOnUse">
<stop stop-color="#35AAF9"/>
<stop offset="1"/>
</linearGradient>
<linearGradient id="paint23_linear" x1="8.31265" y1="-3.95737" x2="124.483" y2="-15.7635" gradientUnits="userSpaceOnUse">
<stop stop-color="#35AAF9"/>
<stop offset="1"/>
</linearGradient>
<linearGradient id="paint24_linear" x1="8.31265" y1="-3.95737" x2="124.483" y2="-15.7635" gradientUnits="userSpaceOnUse">
<stop stop-color="#35AAF9"/>
<stop offset="1"/>
</linearGradient>
<linearGradient id="paint25_linear" x1="8.31265" y1="-3.95737" x2="124.483" y2="-15.7635" gradientUnits="userSpaceOnUse">
<stop stop-color="#35AAF9"/>
<stop offset="1"/>
</linearGradient>
<linearGradient id="paint26_linear" x1="8.31265" y1="-3.95737" x2="124.483" y2="-15.7635" gradientUnits="userSpaceOnUse">
<stop stop-color="#35AAF9"/>
<stop offset="1"/>
</linearGradient>
<linearGradient id="paint27_linear" x1="8.31265" y1="-3.95737" x2="124.483" y2="-15.7635" gradientUnits="userSpaceOnUse">
<stop stop-color="#35AAF9"/>
<stop offset="1"/>
</linearGradient>
</defs>
</svg>
