<svg width="150" height="51" viewBox="0 0 150 51" fill="none" xmlns="http://www.w3.org/2000/svg">
<path d="M113.628 28.0864C114.609 26.8927 115.88 25.9458 117.33 25.3287C118.779 24.7117 120.364 24.4432 121.944 24.547C123.523 24.6507 125.051 25.1235 126.391 25.9238C127.732 26.7241 128.845 27.8276 129.633 29.1374L122.074 29.1545C121.753 29.1574 121.446 29.2815 121.22 29.4997L117.578 32.9805C117.351 33.1982 117.222 33.4931 117.221 33.8002C117.221 34.1074 117.348 34.4016 117.574 34.6183L121.198 38.0817C121.424 38.2983 121.732 38.4195 122.054 38.4187L129.609 38.4048C128.814 39.7195 127.695 40.8292 126.349 41.6365C125.004 42.4438 123.473 42.9241 121.892 43.0353C120.31 43.1464 118.726 42.885 117.279 42.2739C115.831 41.6628 114.565 40.7208 113.59 39.5305C113.03 38.8324 112.253 37.9253 111.697 37.3941C110.806 36.3739 109.821 35.3735 108.898 35.3782L38.3681 35.3782C36.8588 36.4258 35.9972 37.283 35.4877 37.764C34.9718 38.2513 34.5001 38.6803 33.5129 39.6585C32.3332 40.8275 31.2607 41.7946 29.8118 42.4101C28.3629 43.0257 26.78 43.2931 25.2017 43.1892C23.6234 43.0852 22.0976 42.613 20.7581 41.8138C19.4185 41.0147 18.3059 39.9129 17.5176 38.605L25.0767 38.5862C25.3973 38.5837 25.7045 38.4599 25.9309 38.2418L29.5726 34.7611C29.8004 34.5433 29.9288 34.2485 29.9296 33.9413C29.9304 33.6342 29.8036 33.3399 29.5769 33.1233L25.9533 29.6598C25.7266 29.4432 25.4188 29.322 25.0974 29.3228L17.5417 29.3367C18.3367 28.0221 19.456 26.9124 20.8016 26.105C22.1473 25.2977 23.678 24.8174 25.2595 24.7063C26.841 24.5951 28.4249 24.8566 29.8722 25.4677C31.3196 26.0787 32.5861 27.0208 33.5607 28.2111C34.1212 28.9096 34.3494 29.2907 35.2086 29.9886C36.0677 30.6865 37.2232 31.8036 38.2511 31.807L108.898 31.807C109.819 31.8049 111.119 30.5107 111.67 29.9832C112.222 29.4556 113.065 28.7854 113.628 28.0864Z" fill="black"/>
<path d="M49.4883 20.7413H53.9207C53.9207 20.7413 55.9398 25.954 57.5385 26.4353C59.1372 26.9166 104.034 28.4033 104.034 28.4033C104.034 28.4033 59.4901 29.6533 56.228 28.5771C52.966 27.5008 49.4883 20.7413 49.4883 20.7413Z" fill="#35AAF9"/>
<path d="M13.0439 29.0139C13.0439 29.0139 16.9304 20.9991 25.7109 20.9991C34.4914 20.9991 38.6895 29.0139 38.6895 29.0139C38.1138 27.0196 37.1794 25.1472 35.9322 23.4879C34.7656 21.8875 33.2228 20.5989 31.4401 19.7361C29.6575 18.8733 27.6898 18.4626 25.7109 18.5405C15.2768 18.6728 13.0439 29.0139 13.0439 29.0139Z" fill="#35AAF9"/>
<path d="M108.542 29.014C108.542 29.014 112.493 20.9294 121.273 20.9294C130.052 20.9294 134.162 29.014 134.162 29.014C134.162 29.014 131.302 18.682 121.273 18.6986C110.839 18.8319 108.542 29.014 108.542 29.014Z" fill="#35AAF9"/>
<path d="M31.3613 13.0889L95.5184 18.0262C95.5184 18.0262 71.7979 18.5086 42.8824 18.7341C45.4711 22.8509 42.8824 27.8496 42.8824 27.8496C42.8824 27.8496 43.0118 21.265 39.3028 17.8128C37.0102 15.7069 34.3062 14.0982 31.3613 13.0889Z" fill="black"/>
<path d="M3.68571 27.8488C3.68571 27.8488 0.976469 16.2652 20.69 13.0953C32.7218 11.1933 44.963 11.0112 57.046 12.555C57.046 12.555 42.059 10.7095 35.1614 9.66753C33.452 7.45525 34.0832 6.47379 34.0832 6.47379C34.0832 6.47379 53.5085 2.31024 68.0751 3.82757C76.7552 4.71427 85.0423 7.89734 92.0838 13.0498L82.9396 12.0697L81.2733 8.90176C81.2733 8.90176 77.3251 6.81802 75.6098 8.05893C73.8944 9.29985 75.6098 13.058 75.6098 13.058C83.634 14.1877 91.7187 14.8354 99.8204 14.9978C112.727 15.2124 116.206 16.0612 125.155 17.8402C128.969 18.6306 132.585 20.1788 135.789 22.3927C138.994 24.6066 141.721 27.4411 143.809 30.7286H150C150 30.7286 141.477 19.3749 127.244 15.8296C118.27 13.6746 109.045 12.7437 99.8213 13.0618C99.8213 13.0618 83.2876 0.733815 68.0741 0.123159C52.8607 -0.487497 44.4085 1.2241 33.1726 4.11761C21.9367 7.01112 8.30532 10.6417 2.34187 14.8997C-3.62158 19.1576 3.68571 27.8488 3.68571 27.8488Z" fill="black"/>
<path d="M40.46 48L40.172 46.92H37.748L37.46 48H34.88L37.556 39.6H40.364L43.04 48H40.46ZM38.264 45H39.656L38.96 42.42L38.264 45ZM48.9219 43.668C49.6419 44.076 50.0019 44.696 50.0019 45.528C50.0019 46.296 49.7499 46.9 49.2459 47.34C48.7499 47.78 48.0259 48 47.0739 48H43.5219V39.6H46.8579C47.8019 39.6 48.5219 39.804 49.0179 40.212C49.5139 40.62 49.7619 41.204 49.7619 41.964C49.7619 42.692 49.4819 43.26 48.9219 43.668ZM46.7139 41.664H45.9219V42.792L46.8459 42.78C47.1899 42.732 47.3619 42.548 47.3619 42.228C47.3619 42.044 47.2979 41.904 47.1699 41.808C47.0419 41.712 46.8899 41.664 46.7139 41.664ZM46.9299 45.936C47.1219 45.936 47.2819 45.88 47.4099 45.768C47.5379 45.656 47.6019 45.512 47.6019 45.336C47.6019 45 47.4219 44.804 47.0619 44.748L45.9219 44.736V45.936H46.9299ZM56.4917 39.6V41.928H54.5117V48H52.1117V41.928H50.1317V39.6H56.4917ZM64.1541 46.932C63.2981 47.772 62.2461 48.192 60.9981 48.192C59.7501 48.192 58.6941 47.772 57.8301 46.932C56.9741 46.084 56.5461 45.04 56.5461 43.8C56.5461 42.56 56.9741 41.52 57.8301 40.68C58.6941 39.832 59.7501 39.408 60.9981 39.408C62.2461 39.408 63.2981 39.832 64.1541 40.68C65.0181 41.52 65.4501 42.56 65.4501 43.8C65.4501 45.04 65.0181 46.084 64.1541 46.932ZM59.5221 45.264C59.9141 45.648 60.4061 45.84 60.9981 45.84C61.5901 45.84 62.0781 45.648 62.4621 45.264C62.8541 44.872 63.0501 44.384 63.0501 43.8C63.0501 43.216 62.8541 42.732 62.4621 42.348C62.0781 41.956 61.5901 41.76 60.9981 41.76C60.4061 41.76 59.9141 41.956 59.5221 42.348C59.1381 42.732 58.9461 43.216 58.9461 43.8C58.9461 44.384 59.1381 44.872 59.5221 45.264ZM70.442 48.192C69.178 48.192 68.13 47.772 67.298 46.932C66.466 46.092 66.05 45.048 66.05 43.8C66.05 42.552 66.466 41.508 67.298 40.668C68.13 39.828 69.178 39.408 70.442 39.408C71.218 39.408 71.934 39.592 72.59 39.96C73.246 40.328 73.758 40.824 74.126 41.448L72.038 42.648C71.902 42.376 71.69 42.16 71.402 42C71.114 41.84 70.794 41.76 70.442 41.76C69.85 41.76 69.37 41.952 69.002 42.336C68.634 42.72 68.45 43.208 68.45 43.8C68.45 44.392 68.634 44.88 69.002 45.264C69.37 45.648 69.85 45.84 70.442 45.84C70.802 45.84 71.122 45.76 71.402 45.6C71.69 45.44 71.902 45.22 72.038 44.94L74.126 46.14C73.758 46.772 73.246 47.272 72.59 47.64C71.934 48.008 71.218 48.192 70.442 48.192ZM77.1289 45.792H80.2489V48H74.7289V39.6H80.1889V41.784H77.1289V42.696H79.8889V44.856H77.1289V45.792ZM84.5694 39.6C85.4414 39.6 86.1694 39.876 86.7534 40.428C87.3374 40.972 87.6294 41.7 87.6294 42.612C87.6294 43.524 87.3374 44.256 86.7534 44.808C86.1694 45.352 85.4414 45.624 84.5694 45.624H83.6094V48H81.2094V39.6H84.5694ZM84.5694 43.296C84.7534 43.296 84.9094 43.236 85.0374 43.116C85.1654 42.988 85.2294 42.82 85.2294 42.612C85.2294 42.404 85.1654 42.24 85.0374 42.12C84.9094 41.992 84.7534 41.928 84.5694 41.928H83.6094V43.296H84.5694ZM93.7461 43.668C94.4661 44.076 94.8261 44.696 94.8261 45.528C94.8261 46.296 94.5741 46.9 94.0701 47.34C93.5741 47.78 92.8501 48 91.8981 48H88.3461V39.6H91.6821C92.6261 39.6 93.3461 39.804 93.8421 40.212C94.3381 40.62 94.5861 41.204 94.5861 41.964C94.5861 42.692 94.3061 43.26 93.7461 43.668ZM91.5381 41.664H90.7461V42.792L91.6701 42.78C92.0141 42.732 92.1861 42.548 92.1861 42.228C92.1861 42.044 92.1221 41.904 91.9941 41.808C91.8661 41.712 91.7141 41.664 91.5381 41.664ZM91.7541 45.936C91.9461 45.936 92.1061 45.88 92.2341 45.768C92.3621 45.656 92.4261 45.512 92.4261 45.336C92.4261 45 92.2461 44.804 91.8861 44.748L90.7461 44.736V45.936H91.7541ZM100.172 48V44.16L97.5317 48H95.6117V39.6H98.0117V43.44L100.652 39.6H102.572V48H100.172ZM107.86 48.192C106.596 48.192 105.548 47.772 104.716 46.932C103.884 46.092 103.468 45.048 103.468 43.8C103.468 42.552 103.884 41.508 104.716 40.668C105.548 39.828 106.596 39.408 107.86 39.408C108.636 39.408 109.352 39.592 110.008 39.96C110.664 40.328 111.176 40.824 111.544 41.448L109.456 42.648C109.32 42.376 109.108 42.16 108.82 42C108.532 41.84 108.212 41.76 107.86 41.76C107.268 41.76 106.788 41.952 106.42 42.336C106.052 42.72 105.868 43.208 105.868 43.8C105.868 44.392 106.052 44.88 106.42 45.264C106.788 45.648 107.268 45.84 107.86 45.84C108.22 45.84 108.54 45.76 108.82 45.6C109.108 45.44 109.32 45.22 109.456 44.94L111.544 46.14C111.176 46.772 110.664 47.272 110.008 47.64C109.352 48.008 108.636 48.192 107.86 48.192Z" fill="#35AAF9"/>
</svg>
