<svg width="25" height="25" viewBox="0 0 25 25" fill="none" xmlns="http://www.w3.org/2000/svg">
<path d="M24.9819 5.38545C24.9819 5.35689 25.0015 5.32908 25.0002 5.30084L17.3711 12.6519L24.9911 19.7682C24.9956 19.7174 24.9819 19.6661 24.9819 19.6142V5.38545Z" fill="#35AAF9"/>
<path d="M16.2056 13.7833L13.0912 16.7797C12.9336 16.9314 12.73 17.0074 12.5264 17.0074C12.327 17.0074 12.1276 16.9346 11.971 16.7888L8.86508 13.8945L1.19531 21.2873C1.38181 21.3543 1.58198 21.4063 1.79161 21.4063H23.2613C23.5726 21.4063 23.8645 21.3115 24.1184 21.1701L16.2056 13.7833Z" fill="#35AAF9"/>
<path d="M12.5182 15.0711L24.1614 3.85532C23.8978 3.69858 23.5909 3.59344 23.262 3.59344H1.79236C1.36409 3.59344 0.971659 3.75974 0.666016 4.01335L12.5182 15.0711Z" fill="#35AAF9"/>
<path d="M0 5.65863V19.614C0 19.7742 0.0368206 19.9286 0.0767911 20.0762L7.65141 12.7821L0 5.65863Z" fill="#35AAF9"/>
</svg>
