<svg width="25" height="25" viewBox="0 0 25 25" fill="none" xmlns="http://www.w3.org/2000/svg">
<path d="M24.9819 5.38539C24.9819 5.35683 25.0015 5.32902 25.0002 5.30078L17.3711 12.6519L24.9911 19.7681C24.9956 19.7173 24.9819 19.666 24.9819 19.6141V5.38539Z" fill="white"/>
<path d="M16.2066 13.7832L13.0922 16.7797C12.9346 16.9313 12.731 17.0073 12.5274 17.0073C12.328 17.0073 12.1285 16.9346 11.972 16.7887L8.86606 13.8944L1.19629 21.2872C1.38278 21.3542 1.58296 21.4063 1.79259 21.4063H23.2623C23.5736 21.4063 23.8655 21.3114 24.1193 21.17L16.2066 13.7832Z" fill="white"/>
<path d="M12.5182 15.0709L24.1614 3.85513C23.8978 3.6984 23.5909 3.59326 23.262 3.59326H1.79236C1.36409 3.59326 0.971659 3.75955 0.666016 4.01317L12.5182 15.0709Z" fill="white"/>
<path d="M0 5.65869V19.614C0 19.7742 0.0368206 19.9287 0.0767911 20.0763L7.65141 12.7821L0 5.65869Z" fill="white"/>
</svg>
