<svg width="19" height="19" viewBox="0 0 19 19" fill="none" xmlns="http://www.w3.org/2000/svg">
<g clip-path="url(#clip0)">
<path d="M14.4448 12.5691C13.8241 11.9562 13.0492 11.9562 12.4324 12.5691C11.9619 13.0356 11.4914 13.5021 11.0288 13.9766C10.9023 14.1071 10.7956 14.1347 10.6414 14.0478C10.3369 13.8817 10.0127 13.7473 9.72015 13.5654C8.35612 12.7074 7.21349 11.6044 6.20134 10.3629C5.69922 9.74611 5.25245 9.08584 4.9401 8.34254C4.87685 8.1923 4.88871 8.09346 5.01127 7.97089C5.48176 7.51622 5.9404 7.04968 6.40298 6.58314C7.04744 5.93473 7.04744 5.17561 6.39903 4.52325C6.03133 4.1516 5.66364 3.78786 5.29594 3.41621C4.91638 3.03665 4.54078 2.65314 4.15727 2.27754C3.53653 1.67262 2.76161 1.67262 2.14482 2.28149C1.67038 2.74803 1.2157 3.22643 0.733346 3.68506C0.286576 4.10811 0.061214 4.62605 0.0137693 5.23097C-0.0613514 6.21544 0.179826 7.14457 0.519846 8.04997C1.2157 9.92403 2.2753 11.5885 3.56026 13.1147C5.29594 15.1785 7.36769 16.8114 9.79132 17.9896C10.8825 18.5194 12.0133 18.9266 13.2429 18.9939C14.089 19.0413 14.8244 18.8278 15.4135 18.1675C15.8168 17.7168 16.2715 17.3056 16.6985 16.8747C17.3311 16.2342 17.335 15.4592 16.7064 14.8266C15.9552 14.0715 15.2 13.3203 14.4448 12.5691Z" fill="black"/>
<path d="M13.6901 9.41784L15.1491 9.16876C14.9197 7.82845 14.2871 6.61466 13.3264 5.64995C12.3103 4.63384 11.0253 3.99334 9.60989 3.79565L9.4043 5.26248C10.4995 5.41668 11.4958 5.91089 12.2826 6.69769C13.0259 7.44098 13.5122 8.38197 13.6901 9.41784Z" fill="black"/>
<path d="M15.9711 3.07599C14.2868 1.39171 12.1557 0.328159 9.80325 0L9.59766 1.46683C11.6299 1.7515 13.4723 2.67272 14.9273 4.12373C16.3071 5.50358 17.2125 7.24717 17.5407 9.16472L18.9996 8.91564C18.6161 6.69365 17.5684 4.67725 15.9711 3.07599Z" fill="black"/>
</g>
<defs>
<clipPath id="clip0">
<rect width="19" height="19" fill="white"/>
</clipPath>
</defs>
</svg>
