<svg width="25" height="25" viewBox="0 0 25 25" fill="none" xmlns="http://www.w3.org/2000/svg">
<g clip-path="url(#clip0)">
<path d="M19.0064 16.5383C18.1896 15.7319 17.17 15.7319 16.3584 16.5383C15.7394 17.1521 15.1203 17.766 14.5116 18.3903C14.3452 18.5619 14.2047 18.5983 14.0018 18.4839C13.6012 18.2654 13.1746 18.0885 12.7897 17.8492C10.9949 16.7203 9.49144 15.2689 8.15966 13.6354C7.49897 12.8238 6.91112 11.9551 6.50014 10.977C6.4169 10.7793 6.43251 10.6493 6.59378 10.488C7.21285 9.88976 7.81631 9.27589 8.42497 8.66203C9.27294 7.80886 9.27294 6.81002 8.41977 5.95165C7.93596 5.46264 7.45215 4.98403 6.96834 4.49501C6.46892 3.9956 5.97471 3.49098 5.47009 2.99676C4.65333 2.20082 3.63369 2.20082 2.82214 3.00196C2.19787 3.61583 1.59961 4.24531 0.96493 4.84877C0.377074 5.40541 0.0805447 6.08691 0.0181175 6.88285C-0.0807255 8.17822 0.236613 9.40075 0.684007 10.5921C1.59961 13.0579 2.99381 15.2481 4.68455 17.2562C6.96834 19.9717 9.69433 22.1203 12.8833 23.6706C14.3191 24.3677 15.807 24.9035 17.4249 24.9919C18.5382 25.0544 19.5058 24.7734 20.2809 23.9047C20.8116 23.3116 21.4098 22.7706 21.9717 22.2035C22.804 21.3607 22.8092 20.3411 21.9821 19.5087C20.9936 18.5151 20 17.5267 19.0064 16.5383Z" fill="white"/>
<path d="M18.0123 12.3919L19.9319 12.0642C19.6302 10.3006 18.7978 8.70354 17.5337 7.43419C16.1967 6.0972 14.506 5.25444 12.6436 4.99432L12.373 6.92436C13.8141 7.12725 15.125 7.77753 16.1603 8.81279C17.1383 9.79081 17.7782 11.0289 18.0123 12.3919Z" fill="white"/>
<path d="M21.015 4.04736C18.7988 1.8312 15.9948 0.431788 12.8994 0L12.6289 1.93004C15.3029 2.3046 17.7271 3.51673 19.6416 5.42596C21.4571 7.24155 22.6485 9.53575 23.0803 12.0588L24.9999 11.7311C24.4953 8.80743 23.1167 6.15428 21.015 4.04736Z" fill="white"/>
</g>
<defs>
<clipPath id="clip0">
<rect width="25" height="25" fill="white"/>
</clipPath>
</defs>
</svg>
