<svg width="248" height="541" viewBox="0 0 248 541" fill="none" xmlns="http://www.w3.org/2000/svg">
<path d="M66.9407 175.484C67.7327 174.872 68.2007 174.008 68.2007 172.874C68.2007 170.57 66.3647 169.148 63.8627 169.148C61.5227 169.148 60.1727 170.318 59.3987 171.866L61.8647 173.288C62.1887 172.514 62.7467 171.848 63.8627 171.848C64.8887 171.848 65.3207 172.316 65.3207 173.09C65.3207 173.864 64.7447 174.332 63.6107 174.332H62.3687V176.888H63.9707C65.1767 176.888 65.7707 177.392 65.7707 178.22C65.7707 179.048 65.1947 179.552 63.9887 179.552C62.6387 179.552 62.0087 178.814 61.6847 177.842L59.2007 179.264C59.9387 181.046 61.3967 182.252 63.9887 182.252C66.6347 182.252 68.6507 180.794 68.6507 178.436C68.6507 177.086 68.0027 176.078 66.9407 175.484ZM76.5269 173V173.846C75.9329 173.162 75.0509 172.748 73.8449 172.748C71.4869 172.748 69.5429 174.818 69.5429 177.5C69.5429 180.182 71.4869 182.252 73.8449 182.252C75.0509 182.252 75.9329 181.838 76.5269 181.154V182H79.2269V173H76.5269ZM74.3849 179.696C73.1429 179.696 72.2429 178.85 72.2429 177.5C72.2429 176.15 73.1429 175.304 74.3849 175.304C75.6269 175.304 76.5269 176.15 76.5269 177.5C76.5269 178.85 75.6269 179.696 74.3849 179.696ZM89.6678 173H81.2078V182H83.9078V175.52H86.9678V182H89.6678V173ZM98.1292 173L94.2772 177.5V173H91.6492V182H93.6292L97.4812 177.5V182H100.109V173H98.1292ZM106.411 182.252C108.175 182.252 109.705 181.334 110.479 179.93L108.121 178.58C107.833 179.21 107.167 179.588 106.375 179.588C105.205 179.588 104.341 178.742 104.341 177.5C104.341 176.258 105.205 175.412 106.375 175.412C107.167 175.412 107.815 175.79 108.121 176.42L110.479 175.052C109.705 173.666 108.157 172.748 106.411 172.748C103.675 172.748 101.641 174.818 101.641 177.5C101.641 180.182 103.675 182.252 106.411 182.252ZM117.923 173V173.846C117.329 173.162 116.447 172.748 115.241 172.748C112.883 172.748 110.939 174.818 110.939 177.5C110.939 180.182 112.883 182.252 115.241 182.252C116.447 182.252 117.329 181.838 117.923 181.154V182H120.623V173H117.923ZM115.781 179.696C114.539 179.696 113.639 178.85 113.639 177.5C113.639 176.15 114.539 175.304 115.781 175.304C117.023 175.304 117.923 176.15 117.923 177.5C117.923 178.85 117.023 179.696 115.781 179.696ZM129.894 173H121.794V175.592H124.512V182H127.212V175.592H129.894V173ZM135.271 175.7H133.759V173H131.059V182H135.271C137.449 182 138.799 180.74 138.799 178.85C138.799 176.96 137.449 175.7 135.271 175.7ZM135.289 179.66H133.759V178.04H135.289C135.829 178.04 136.171 178.382 136.171 178.85C136.171 179.318 135.829 179.66 135.289 179.66ZM144.379 182.252C146.143 182.252 147.673 181.334 148.447 179.93L146.089 178.58C145.801 179.21 145.135 179.588 144.343 179.588C143.173 179.588 142.309 178.742 142.309 177.5C142.309 176.258 143.173 175.412 144.343 175.412C145.135 175.412 145.783 175.79 146.089 176.42L148.447 175.052C147.673 173.666 146.125 172.748 144.379 172.748C141.643 172.748 139.609 174.818 139.609 177.5C139.609 180.182 141.643 182.252 144.379 182.252ZM156.916 173H152.524C150.346 173 149.176 174.62 149.176 176.204C149.176 177.32 149.806 178.472 150.922 179.03L148.816 182H151.876L153.73 179.408H154.288V182H156.916V173ZM152.758 175.376H154.288V177.176H152.758C152.182 177.176 151.804 176.852 151.804 176.294C151.804 175.718 152.182 175.376 152.758 175.376ZM169.163 173V176.24H166.103V173H163.403V182H166.103V178.76H169.163V182H171.863V173H169.163ZM180.378 173V173.846C179.784 173.162 178.902 172.748 177.696 172.748C175.338 172.748 173.394 174.818 173.394 177.5C173.394 180.182 175.338 182.252 177.696 182.252C178.902 182.252 179.784 181.838 180.378 181.154V182H183.078V173H180.378ZM178.236 179.696C176.994 179.696 176.094 178.85 176.094 177.5C176.094 176.15 176.994 175.304 178.236 175.304C179.478 175.304 180.378 176.15 180.378 177.5C180.378 178.85 179.478 179.696 178.236 179.696ZM21.8238 195V195.846C21.2298 195.162 20.3478 194.748 19.1418 194.748C16.7838 194.748 14.8398 196.818 14.8398 199.5C14.8398 202.182 16.7838 204.252 19.1418 204.252C20.3478 204.252 21.2298 203.838 21.8238 203.154V204H24.5238V195H21.8238ZM19.6818 201.696C18.4398 201.696 17.5398 200.85 17.5398 199.5C17.5398 198.15 18.4398 197.304 19.6818 197.304C20.9238 197.304 21.8238 198.15 21.8238 199.5C21.8238 200.85 20.9238 201.696 19.6818 201.696ZM35.1446 204L31.7786 199.5L35.0546 195H31.9046L29.2046 198.942V195H26.5046V204H29.2046V200.022L32.0846 204H35.1446ZM44.2375 201.48V195H41.5375V201.48H38.8375V195H36.1375V204H43.1395V206.412H45.7675V201.48H44.2375ZM53.6038 195L49.7518 199.5V195H47.1238V204H49.1038L52.9558 199.5V204H55.5838V195H53.6038ZM61.8852 204.252C64.5312 204.252 66.6552 202.182 66.6552 199.5C66.6552 196.818 64.5312 194.748 61.8852 194.748C59.2392 194.748 57.1152 196.818 57.1152 199.5C57.1152 202.182 59.2392 204.252 61.8852 204.252ZM61.8852 201.624C60.7152 201.624 59.8152 200.778 59.8152 199.5C59.8152 198.222 60.7152 197.376 61.8852 197.376C63.0552 197.376 63.9552 198.222 63.9552 199.5C63.9552 200.778 63.0552 201.624 61.8852 201.624ZM73.9424 195V198.24H70.8824V195H68.1824V204H70.8824V200.76H73.9424V204H76.6424V195H73.9424ZM84.3838 195V198.24H81.3238V195H78.6238V204H81.3238V200.76H84.3838V204H87.0838V195H84.3838ZM93.2772 197.7H91.7652V195H89.0652V204H93.2772C95.4552 204 96.8052 202.74 96.8052 200.85C96.8052 198.96 95.4552 197.7 93.2772 197.7ZM97.7052 195V204H100.405V195H97.7052ZM93.2952 201.66H91.7652V200.04H93.2952C93.8352 200.04 94.1772 200.382 94.1772 200.85C94.1772 201.318 93.8352 201.66 93.2952 201.66ZM103.919 193.938H109.319V191.598H103.919V193.938ZM108.869 195L105.017 199.5V195H102.389V204H104.369L108.221 199.5V204H110.849V195H108.869ZM127.771 195V201.48H125.251V195H122.551V201.48H120.031V195H117.331V204H130.471V195H127.771ZM138.928 195L135.076 199.5V195H132.448V204H134.428L138.28 199.5V204H140.908V195H138.928ZM148.649 195V198.24H145.589V195H142.889V204H145.589V200.76H148.649V204H151.349V195H148.649ZM157.651 204.252C160.297 204.252 162.421 202.182 162.421 199.5C162.421 196.818 160.297 194.748 157.651 194.748C155.005 194.748 152.881 196.818 152.881 199.5C152.881 202.182 155.005 204.252 157.651 204.252ZM157.651 201.624C156.481 201.624 155.581 200.778 155.581 199.5C155.581 198.222 156.481 197.376 157.651 197.376C158.821 197.376 159.721 198.222 159.721 199.5C159.721 200.778 158.821 201.624 157.651 201.624ZM173.488 195H170.896L168.718 198.402L166.54 195H163.948V204H166.54V199.356L168.556 202.488H168.88L170.896 199.356V204H173.488V195ZM179.782 204.252C182.428 204.252 184.552 202.182 184.552 199.5C184.552 196.818 182.428 194.748 179.782 194.748C177.136 194.748 175.012 196.818 175.012 199.5C175.012 202.182 177.136 204.252 179.782 204.252ZM179.782 201.624C178.612 201.624 177.712 200.778 177.712 199.5C177.712 198.222 178.612 197.376 179.782 197.376C180.952 197.376 181.852 198.222 181.852 199.5C181.852 200.778 180.952 201.624 179.782 201.624ZM191.839 195V198.24H188.779V195H186.079V204H188.779V200.76H191.839V204H194.539V195H191.839ZM203.81 195H195.71V197.592H198.428V204H201.128V197.592H203.81V195ZM211.158 195V195.846C210.564 195.162 209.682 194.748 208.476 194.748C206.118 194.748 204.174 196.818 204.174 199.5C204.174 202.182 206.118 204.252 208.476 204.252C209.682 204.252 210.564 203.838 211.158 203.154V204H213.858V195H211.158ZM209.016 201.696C207.774 201.696 206.874 200.85 206.874 199.5C206.874 198.15 207.774 197.304 209.016 197.304C210.258 197.304 211.158 198.15 211.158 199.5C211.158 200.85 210.258 201.696 209.016 201.696ZM228.529 204L225.541 199.5L228.349 195H225.361L223.093 198.852V195H220.465V198.852L218.197 195H215.209L218.017 199.5L215.029 204H218.017L220.465 200.094V204H223.093V200.094L225.541 204H228.529ZM39.9509 217H32.6069V222.094C32.6069 223.21 32.1569 223.732 31.3109 223.48V226C33.9389 226.306 35.3069 224.992 35.3069 222.274V219.592H37.2509V226H39.9509V217ZM48.4095 217L44.5575 221.5V217H41.9295V226H43.9095L47.7615 221.5V226H50.3895V217H48.4095ZM56.7269 226.252C59.5529 226.252 61.3169 224.47 61.3169 222.04C61.3169 219.484 59.2469 218.116 57.5909 218.116C56.6549 218.116 55.7729 218.386 55.1249 218.962C55.3769 218.332 55.8449 217.81 57.4469 217.216C59.3549 216.496 60.4709 215.83 60.8309 214.318L58.5989 213.04C58.0769 214.318 57.2849 214.552 55.3589 215.506C52.4789 216.928 51.9209 218.458 51.9209 221.356C51.9209 224.128 53.7389 226.252 56.7269 226.252ZM56.7089 223.822C55.6109 223.822 54.7469 223.066 54.7469 221.968C54.7469 220.852 55.7189 220.222 56.6549 220.222C57.7889 220.222 58.6169 220.996 58.6169 222.04C58.6169 223.066 57.8249 223.822 56.7089 223.822ZM66.9038 226.252C69.5498 226.252 71.6738 224.182 71.6738 221.5C71.6738 218.818 69.5498 216.748 66.9038 216.748C64.2578 216.748 62.1338 218.818 62.1338 221.5C62.1338 224.182 64.2578 226.252 66.9038 226.252ZM66.9038 223.624C65.7338 223.624 64.8338 222.778 64.8338 221.5C64.8338 220.222 65.7338 219.376 66.9038 219.376C68.0738 219.376 68.9738 220.222 68.9738 221.5C68.9738 222.778 68.0738 223.624 66.9038 223.624ZM83.4609 217V220.24H80.4009V217H77.7009V226H80.4009V222.76H83.4609V226H86.1609V217H83.4609ZM94.6763 217V217.846C94.0823 217.162 93.2003 216.748 91.9943 216.748C89.6363 216.748 87.6923 218.818 87.6923 221.5C87.6923 224.182 89.6363 226.252 91.9943 226.252C93.2003 226.252 94.0823 225.838 94.6763 225.154V226H97.3763V217H94.6763ZM92.5343 223.696C91.2923 223.696 90.3923 222.85 90.3923 221.5C90.3923 220.15 91.2923 219.304 92.5343 219.304C93.7763 219.304 94.6763 220.15 94.6763 221.5C94.6763 222.85 93.7763 223.696 92.5343 223.696ZM109.239 216.748C108.033 216.748 107.151 217.162 106.557 217.846V217H103.857V229.6H106.557V225.154C107.151 225.838 108.033 226.252 109.239 226.252C111.597 226.252 113.541 224.182 113.541 221.5C113.541 218.818 111.597 216.748 109.239 216.748ZM108.699 223.696C107.457 223.696 106.557 222.85 106.557 221.5C106.557 220.15 107.457 219.304 108.699 219.304C109.941 219.304 110.841 220.15 110.841 221.5C110.841 222.85 109.941 223.696 108.699 223.696ZM117.484 222.58H123.874C123.946 222.238 123.982 221.878 123.982 221.5C123.982 218.782 122.038 216.748 119.41 216.748C116.566 216.748 114.622 218.818 114.622 221.5C114.622 224.182 116.53 226.252 119.608 226.252C121.318 226.252 122.65 225.622 123.532 224.398L121.372 223.156C121.012 223.552 120.382 223.84 119.644 223.84C118.654 223.84 117.826 223.516 117.484 222.58ZM117.43 220.564C117.682 219.646 118.366 219.142 119.392 219.142C120.202 219.142 121.012 219.52 121.3 220.564H117.43ZM131.813 217H125.513V226H128.213V219.592H131.813V217ZM139.006 217L137.314 222.526L135.226 217H132.346L135.874 225.838C135.46 226.792 134.884 227.08 133.678 227.08V229.6C136.018 229.726 137.8 228.592 138.808 225.73L141.886 217H139.006ZM150.166 217H142.822V222.094C142.822 223.21 142.372 223.732 141.526 223.48V226C144.154 226.306 145.522 224.992 145.522 222.274V219.592H147.466V226H150.166V217ZM158.624 217L154.772 221.5V217H152.144V226H154.124L157.976 221.5V226H160.604V217H158.624ZM167.968 216.748C166.762 216.748 165.88 217.162 165.286 217.846V217H162.586V229.6H165.286V225.154C165.88 225.838 166.762 226.252 167.968 226.252C170.326 226.252 172.27 224.182 172.27 221.5C172.27 218.818 170.326 216.748 167.968 216.748ZM167.428 223.696C166.186 223.696 165.286 222.85 165.286 221.5C165.286 220.15 166.186 219.304 167.428 219.304C168.67 219.304 169.57 220.15 169.57 221.5C169.57 222.85 168.67 223.696 167.428 223.696ZM178.121 226.252C180.767 226.252 182.891 224.182 182.891 221.5C182.891 218.818 180.767 216.748 178.121 216.748C175.475 216.748 173.351 218.818 173.351 221.5C173.351 224.182 175.475 226.252 178.121 226.252ZM178.121 223.624C176.951 223.624 176.051 222.778 176.051 221.5C176.051 220.222 176.951 219.376 178.121 219.376C179.291 219.376 180.191 220.222 180.191 221.5C180.191 222.778 179.291 223.624 178.121 223.624ZM191.132 221.392C191.69 220.978 191.978 220.348 191.978 219.574C191.978 218.08 190.916 217 188.918 217H184.418V226H189.278C191.276 226 192.338 224.92 192.338 223.426C192.338 222.508 191.906 221.806 191.132 221.392ZM188.63 219.16C189.116 219.16 189.422 219.358 189.422 219.808C189.422 220.24 189.116 220.42 188.63 220.42H186.938V219.16H188.63ZM188.918 223.768H186.938V222.472H188.918C189.386 222.472 189.71 222.67 189.71 223.102C189.71 223.552 189.386 223.768 188.918 223.768ZM202.321 226L198.955 221.5L202.231 217H199.081L196.381 220.942V217H193.681V226H196.381V222.022L199.261 226H202.321ZM208.984 217L207.292 222.526L205.204 217H202.324L205.852 225.838C205.438 226.792 204.862 227.08 203.656 227.08V229.6C205.996 229.726 207.778 228.592 208.786 225.73L211.864 217H208.984ZM37.1249 238.748C35.9189 238.748 35.0369 239.162 34.4429 239.846V239H31.7429V251.6H34.4429V247.154C35.0369 247.838 35.9189 248.252 37.1249 248.252C39.4829 248.252 41.4269 246.182 41.4269 243.5C41.4269 240.818 39.4829 238.748 37.1249 238.748ZM36.5849 245.696C35.3429 245.696 34.4429 244.85 34.4429 243.5C34.4429 242.15 35.3429 241.304 36.5849 241.304C37.8269 241.304 38.7269 242.15 38.7269 243.5C38.7269 244.85 37.8269 245.696 36.5849 245.696ZM49.4918 239V239.846C48.8978 239.162 48.0158 238.748 46.8098 238.748C44.4518 238.748 42.5078 240.818 42.5078 243.5C42.5078 246.182 44.4518 248.252 46.8098 248.252C48.0158 248.252 48.8978 247.838 49.4918 247.154V248H52.1918V239H49.4918ZM47.3498 245.696C46.1078 245.696 45.2078 244.85 45.2078 243.5C45.2078 242.15 46.1078 241.304 47.3498 241.304C48.5918 241.304 49.4918 242.15 49.4918 243.5C49.4918 244.85 48.5918 245.696 47.3498 245.696ZM59.6446 243.428C60.2926 242.978 60.5986 242.276 60.5986 241.448C60.5986 240.026 59.3386 238.748 57.1426 238.748C55.5946 238.748 54.2986 239.396 53.5426 240.854L55.7206 242.096C56.0446 241.376 56.5126 241.052 57.1966 241.052C57.7006 241.052 58.0426 241.268 58.0426 241.7C58.0426 242.096 57.7726 242.312 57.1966 242.312H56.2246V244.58H57.4846C58.0786 244.58 58.3306 244.814 58.3306 245.21C58.3306 245.66 57.9346 245.912 57.2686 245.912C56.4406 245.912 55.8826 245.516 55.6306 244.814L53.4526 246.11C54.1546 247.568 55.4326 248.252 57.2326 248.252C59.6626 248.252 60.9586 247.046 60.9586 245.552C60.9586 244.634 60.4906 243.878 59.6446 243.428ZM69.0253 243.392C69.5833 242.978 69.8713 242.348 69.8713 241.574C69.8713 240.08 68.8093 239 66.8113 239H62.3113V248H67.1713C69.1693 248 70.2313 246.92 70.2313 245.426C70.2313 244.508 69.7993 243.806 69.0253 243.392ZM66.5233 241.16C67.0093 241.16 67.3153 241.358 67.3153 241.808C67.3153 242.24 67.0093 242.42 66.5233 242.42H64.8313V241.16H66.5233ZM66.8113 245.768H64.8313V244.472H66.8113C67.2793 244.472 67.6033 244.67 67.6033 245.102C67.6033 245.552 67.2793 245.768 66.8113 245.768ZM78.109 239V239.846C77.515 239.162 76.633 238.748 75.427 238.748C73.069 238.748 71.125 240.818 71.125 243.5C71.125 246.182 73.069 248.252 75.427 248.252C76.633 248.252 77.515 247.838 78.109 247.154V248H80.809V239H78.109ZM75.967 245.696C74.725 245.696 73.825 244.85 73.825 243.5C73.825 242.15 74.725 241.304 75.967 241.304C77.209 241.304 78.109 242.15 78.109 243.5C78.109 244.85 77.209 245.696 75.967 245.696ZM90.6198 239H83.2758V244.094C83.2758 245.21 82.8258 245.732 81.9798 245.48V248C84.6078 248.306 85.9758 246.992 85.9758 244.274V241.592H87.9198V248H90.6198V239ZM97.1884 243.914H108.348V241.322H97.1884V243.914ZM119.243 248.252C121.007 248.252 122.537 247.334 123.311 245.93L120.953 244.58C120.665 245.21 119.999 245.588 119.207 245.588C118.037 245.588 117.173 244.742 117.173 243.5C117.173 242.258 118.037 241.412 119.207 241.412C119.999 241.412 120.647 241.79 120.953 242.42L123.311 241.052C122.537 239.666 120.989 238.748 119.243 238.748C116.507 238.748 114.473 240.818 114.473 243.5C114.473 246.182 116.507 248.252 119.243 248.252ZM132.859 248L129.637 243.428L132.751 239H129.655L128.089 241.232L126.523 239H123.427L126.541 243.428L123.319 248H126.415L128.089 245.624L129.763 248H132.859ZM137.541 248.252C140.187 248.252 142.311 246.182 142.311 243.5C142.311 240.818 140.187 238.748 137.541 238.748C134.895 238.748 132.771 240.818 132.771 243.5C132.771 246.182 134.895 248.252 137.541 248.252ZM137.541 245.624C136.371 245.624 135.471 244.778 135.471 243.5C135.471 242.222 136.371 241.376 137.541 241.376C138.711 241.376 139.611 242.222 139.611 243.5C139.611 244.778 138.711 245.624 137.541 245.624ZM155.808 248L152.82 243.5L155.628 239H152.64L150.372 242.852V239H147.744V242.852L145.476 239H142.488L145.296 243.5L142.308 248H145.296L147.744 244.094V248H150.372V244.094L152.82 248H155.808ZM165.249 245.48V239H157.995V242.366C157.995 243.914 157.725 244.778 157.275 245.48H156.159V250.412H158.787V248H163.791V250.412H166.419V245.48H165.249ZM160.101 245.48C160.443 244.67 160.623 243.68 160.623 242.366V241.412H162.621V245.48H160.101ZM169.823 244.58H176.213C176.285 244.238 176.321 243.878 176.321 243.5C176.321 240.782 174.377 238.748 171.749 238.748C168.905 238.748 166.961 240.818 166.961 243.5C166.961 246.182 168.869 248.252 171.947 248.252C173.657 248.252 174.989 247.622 175.871 246.398L173.711 245.156C173.351 245.552 172.721 245.84 171.983 245.84C170.993 245.84 170.165 245.516 169.823 244.58ZM169.769 242.564C170.021 241.646 170.705 241.142 171.731 241.142C172.541 241.142 173.351 241.52 173.639 242.564H169.769ZM183.612 239V242.24H180.552V239H177.852V248H180.552V244.76H183.612V248H186.312V239H183.612ZM194.774 239L190.922 243.5V239H188.294V248H190.274L194.126 243.5V248H196.754V239H194.774ZM206.205 239H201.813C199.635 239 198.465 240.62 198.465 242.204C198.465 243.32 199.095 244.472 200.211 245.03L198.105 248H201.165L203.019 245.408H203.577V248H206.205V239ZM202.047 241.376H203.577V243.176H202.047C201.471 243.176 201.093 242.852 201.093 242.294C201.093 241.718 201.471 241.376 202.047 241.376ZM209.722 248.252C210.658 248.252 211.432 247.478 211.432 246.542C211.432 245.606 210.658 244.832 209.722 244.832C208.786 244.832 208.012 245.606 208.012 246.542C208.012 247.478 208.786 248.252 209.722 248.252Z" fill="white"/>
<path d="M32.6581 457.4H23.1181V470H25.9981V460.172H29.7781V470H32.6581V457.4ZM40.1171 460.748C38.9111 460.748 38.0291 461.162 37.4351 461.846V461H34.7351V473.6H37.4351V469.154C38.0291 469.838 38.9111 470.252 40.1171 470.252C42.4751 470.252 44.4191 468.182 44.4191 465.5C44.4191 462.818 42.4751 460.748 40.1171 460.748ZM39.5771 467.696C38.3351 467.696 37.4351 466.85 37.4351 465.5C37.4351 464.15 38.3351 463.304 39.5771 463.304C40.8191 463.304 41.7191 464.15 41.7191 465.5C41.7191 466.85 40.8191 467.696 39.5771 467.696ZM52.43 461L48.578 465.5V461H45.95V470H47.93L51.782 465.5V470H54.41V461H52.43ZM58.8034 466.58H65.1934C65.2654 466.238 65.3014 465.878 65.3014 465.5C65.3014 462.782 63.3574 460.748 60.7294 460.748C57.8854 460.748 55.9414 462.818 55.9414 465.5C55.9414 468.182 57.8494 470.252 60.9274 470.252C62.6374 470.252 63.9694 469.622 64.8514 468.398L62.6914 467.156C62.3314 467.552 61.7014 467.84 60.9634 467.84C59.9734 467.84 59.1454 467.516 58.8034 466.58ZM58.7494 464.564C59.0014 463.646 59.6854 463.142 60.7114 463.142C61.5214 463.142 62.3314 463.52 62.6194 464.564H58.7494ZM74.8379 470L71.6159 465.428L74.7299 461H71.6339L70.0679 463.232L68.5019 461H65.4059L68.5199 465.428L65.2979 470H68.3939L70.0679 467.624L71.7419 470H74.8379ZM81.734 461V461.846C81.14 461.162 80.258 460.748 79.052 460.748C76.694 460.748 74.75 462.818 74.75 465.5C74.75 468.182 76.694 470.252 79.052 470.252C80.258 470.252 81.14 469.838 81.734 469.154V470H84.434V461H81.734ZM79.592 467.696C78.35 467.696 77.45 466.85 77.45 465.5C77.45 464.15 78.35 463.304 79.592 463.304C80.834 463.304 81.734 464.15 81.734 465.5C81.734 466.85 80.834 467.696 79.592 467.696ZM93.7048 461H85.6048V463.592H88.3228V470H91.0228V463.592H93.7048V461ZM99.0819 463.7H97.5699V461H94.8699V470H99.0819C101.26 470 102.61 468.74 102.61 466.85C102.61 464.96 101.26 463.7 99.0819 463.7ZM99.0999 467.66H97.5699V466.04H99.0999C99.6399 466.04 99.9819 466.382 99.9819 466.85C99.9819 467.318 99.6399 467.66 99.0999 467.66ZM107.202 467.21H104.322L103.602 472.52H105.762L107.202 467.21ZM121.963 461H113.503V470H116.203V463.52H119.263V470H121.963V461ZM126.356 466.58H132.746C132.818 466.238 132.854 465.878 132.854 465.5C132.854 462.782 130.91 460.748 128.282 460.748C125.438 460.748 123.494 462.818 123.494 465.5C123.494 468.182 125.402 470.252 128.48 470.252C130.19 470.252 131.522 469.622 132.404 468.398L130.244 467.156C129.884 467.552 129.254 467.84 128.516 467.84C127.526 467.84 126.698 467.516 126.356 466.58ZM126.302 464.564C126.554 463.646 127.238 463.142 128.264 463.142C129.074 463.142 129.884 463.52 130.172 464.564H126.302ZM139.768 460.748C138.562 460.748 137.68 461.162 137.086 461.846V461H134.386V473.6H137.086V469.154C137.68 469.838 138.562 470.252 139.768 470.252C142.126 470.252 144.07 468.182 144.07 465.5C144.07 462.818 142.126 460.748 139.768 460.748ZM139.228 467.696C137.986 467.696 137.086 466.85 137.086 465.5C137.086 464.15 137.986 463.304 139.228 463.304C140.47 463.304 141.37 464.15 141.37 465.5C141.37 466.85 140.47 467.696 139.228 467.696ZM148.012 466.58H154.402C154.474 466.238 154.51 465.878 154.51 465.5C154.51 462.782 152.566 460.748 149.938 460.748C147.094 460.748 145.15 462.818 145.15 465.5C145.15 468.182 147.058 470.252 150.136 470.252C151.846 470.252 153.178 469.622 154.06 468.398L151.9 467.156C151.54 467.552 150.91 467.84 150.172 467.84C149.182 467.84 148.354 467.516 148.012 466.58ZM147.958 464.564C148.21 463.646 148.894 463.142 149.92 463.142C150.73 463.142 151.54 463.52 151.828 464.564H147.958ZM160.274 470.252C162.92 470.252 165.044 468.182 165.044 465.5C165.044 462.818 162.92 460.748 160.274 460.748C157.628 460.748 155.504 462.818 155.504 465.5C155.504 468.182 157.628 470.252 160.274 470.252ZM160.274 467.624C159.104 467.624 158.204 466.778 158.204 465.5C158.204 464.222 159.104 463.376 160.274 463.376C161.444 463.376 162.344 464.222 162.344 465.5C162.344 466.778 161.444 467.624 160.274 467.624ZM170.927 470.252C173.753 470.252 175.517 468.47 175.517 466.04C175.517 463.484 173.447 462.116 171.791 462.116C170.855 462.116 169.973 462.386 169.325 462.962C169.577 462.332 170.045 461.81 171.647 461.216C173.555 460.496 174.671 459.83 175.031 458.318L172.799 457.04C172.277 458.318 171.485 458.552 169.559 459.506C166.679 460.928 166.121 462.458 166.121 465.356C166.121 468.128 167.939 470.252 170.927 470.252ZM170.909 467.822C169.811 467.822 168.947 467.066 168.947 465.968C168.947 464.852 169.919 464.222 170.855 464.222C171.989 464.222 172.817 464.996 172.817 466.04C172.817 467.066 172.025 467.822 170.909 467.822ZM182.102 461L180.41 466.526L178.322 461H175.442L178.97 469.838C178.556 470.792 177.98 471.08 176.774 471.08V473.6C179.114 473.726 180.896 472.592 181.904 469.73L184.982 461H182.102ZM193.443 461H185.343V463.592H188.061V470H190.761V463.592H193.443V461ZM198.82 463.7H197.308V461H194.608V470H198.82C200.998 470 202.348 468.74 202.348 466.85C202.348 464.96 200.998 463.7 198.82 463.7ZM198.838 467.66H197.308V466.04H198.838C199.378 466.04 199.72 466.382 199.72 466.85C199.72 467.318 199.378 467.66 198.838 467.66ZM207.928 470.252C209.692 470.252 211.222 469.334 211.996 467.93L209.638 466.58C209.35 467.21 208.684 467.588 207.892 467.588C206.722 467.588 205.858 466.742 205.858 465.5C205.858 464.258 206.722 463.412 207.892 463.412C208.684 463.412 209.332 463.79 209.638 464.42L211.996 463.052C211.222 461.666 209.674 460.748 207.928 460.748C205.192 460.748 203.158 462.818 203.158 465.5C203.158 468.182 205.192 470.252 207.928 470.252ZM220.465 461H216.073C213.895 461 212.725 462.62 212.725 464.204C212.725 465.32 213.355 466.472 214.471 467.03L212.365 470H215.425L217.279 467.408H217.837V470H220.465V461ZM216.307 463.376H217.837V465.176H216.307C215.731 465.176 215.353 464.852 215.353 464.294C215.353 463.718 215.731 463.376 216.307 463.376ZM19.3268 483H11.9828V488.094C11.9828 489.21 11.5328 489.732 10.6868 489.48V492C13.3148 492.306 14.6828 490.992 14.6828 488.274V485.592H16.6268V492H19.3268V483ZM27.7854 483L23.9334 487.5V483H21.3054V492H23.2854L27.1374 487.5V492H29.7654V483H27.7854ZM36.1028 492.252C38.9288 492.252 40.6928 490.47 40.6928 488.04C40.6928 485.484 38.6228 484.116 36.9668 484.116C36.0308 484.116 35.1488 484.386 34.5008 484.962C34.7528 484.332 35.2208 483.81 36.8228 483.216C38.7308 482.496 39.8468 481.83 40.2068 480.318L37.9748 479.04C37.4528 480.318 36.6608 480.552 34.7348 481.506C31.8548 482.928 31.2968 484.458 31.2968 487.356C31.2968 490.128 33.1148 492.252 36.1028 492.252ZM36.0848 489.822C34.9868 489.822 34.1228 489.066 34.1228 487.968C34.1228 486.852 35.0948 486.222 36.0308 486.222C37.1648 486.222 37.9928 486.996 37.9928 488.04C37.9928 489.066 37.2008 489.822 36.0848 489.822ZM46.2797 492.252C48.9257 492.252 51.0497 490.182 51.0497 487.5C51.0497 484.818 48.9257 482.748 46.2797 482.748C43.6337 482.748 41.5097 484.818 41.5097 487.5C41.5097 490.182 43.6337 492.252 46.2797 492.252ZM46.2797 489.624C45.1097 489.624 44.2097 488.778 44.2097 487.5C44.2097 486.222 45.1097 485.376 46.2797 485.376C47.4497 485.376 48.3497 486.222 48.3497 487.5C48.3497 488.778 47.4497 489.624 46.2797 489.624ZM61.3969 492.252C64.0429 492.252 66.1669 490.182 66.1669 487.5C66.1669 484.818 64.0429 482.748 61.3969 482.748C58.7509 482.748 56.6269 484.818 56.6269 487.5C56.6269 490.182 58.7509 492.252 61.3969 492.252ZM61.3969 489.624C60.2269 489.624 59.3269 488.778 59.3269 487.5C59.3269 486.222 60.2269 485.376 61.3969 485.376C62.5669 485.376 63.4669 486.222 63.4669 487.5C63.4669 488.778 62.5669 489.624 61.3969 489.624ZM74.6325 483H66.5325V485.592H69.2505V492H71.9505V485.592H74.6325V483ZM81.1796 482.748C79.9736 482.748 79.0916 483.162 78.4976 483.846V483H75.7976V495.6H78.4976V491.154C79.0916 491.838 79.9736 492.252 81.1796 492.252C83.5376 492.252 85.4816 490.182 85.4816 487.5C85.4816 484.818 83.5376 482.748 81.1796 482.748ZM80.6396 489.696C79.3976 489.696 78.4976 488.85 78.4976 487.5C78.4976 486.15 79.3976 485.304 80.6396 485.304C81.8816 485.304 82.7816 486.15 82.7816 487.5C82.7816 488.85 81.8816 489.696 80.6396 489.696ZM89.4245 488.58H95.8145C95.8865 488.238 95.9225 487.878 95.9225 487.5C95.9225 484.782 93.9785 482.748 91.3505 482.748C88.5065 482.748 86.5625 484.818 86.5625 487.5C86.5625 490.182 88.4705 492.252 91.5485 492.252C93.2585 492.252 94.5905 491.622 95.4725 490.398L93.3125 489.156C92.9525 489.552 92.3225 489.84 91.5845 489.84C90.5945 489.84 89.7665 489.516 89.4245 488.58ZM89.3705 486.564C89.6225 485.646 90.3065 485.142 91.3325 485.142C92.1425 485.142 92.9525 485.52 93.2405 486.564H89.3705ZM103.754 483H97.4539V492H100.154V485.592H103.754V483ZM110.946 483L109.254 488.526L107.166 483H104.286L107.814 491.838C107.4 492.792 106.824 493.08 105.618 493.08V495.6C107.958 495.726 109.74 494.592 110.748 491.73L113.826 483H110.946ZM122.106 483H114.762V488.094C114.762 489.21 114.312 489.732 113.466 489.48V492C116.094 492.306 117.462 490.992 117.462 488.274V485.592H119.406V492H122.106V483ZM130.565 483L126.713 487.5V483H124.085V492H126.065L129.917 487.5V492H132.545V483H130.565ZM139.908 482.748C138.702 482.748 137.82 483.162 137.226 483.846V483H134.526V495.6H137.226V491.154C137.82 491.838 138.702 492.252 139.908 492.252C142.266 492.252 144.21 490.182 144.21 487.5C144.21 484.818 142.266 482.748 139.908 482.748ZM139.368 489.696C138.126 489.696 137.226 488.85 137.226 487.5C137.226 486.15 138.126 485.304 139.368 485.304C140.61 485.304 141.51 486.15 141.51 487.5C141.51 488.85 140.61 489.696 139.368 489.696ZM150.061 492.252C152.707 492.252 154.831 490.182 154.831 487.5C154.831 484.818 152.707 482.748 150.061 482.748C147.415 482.748 145.291 484.818 145.291 487.5C145.291 490.182 147.415 492.252 150.061 492.252ZM150.061 489.624C148.891 489.624 147.991 488.778 147.991 487.5C147.991 486.222 148.891 485.376 150.061 485.376C151.231 485.376 152.131 486.222 152.131 487.5C152.131 488.778 151.231 489.624 150.061 489.624ZM163.072 487.392C163.63 486.978 163.918 486.348 163.918 485.574C163.918 484.08 162.856 483 160.858 483H156.358V492H161.218C163.216 492 164.278 490.92 164.278 489.426C164.278 488.508 163.846 487.806 163.072 487.392ZM160.57 485.16C161.056 485.16 161.362 485.358 161.362 485.808C161.362 486.24 161.056 486.42 160.57 486.42H158.878V485.16H160.57ZM160.858 489.768H158.878V488.472H160.858C161.326 488.472 161.65 488.67 161.65 489.102C161.65 489.552 161.326 489.768 160.858 489.768ZM172.156 483V483.846C171.562 483.162 170.68 482.748 169.474 482.748C167.116 482.748 165.172 484.818 165.172 487.5C165.172 490.182 167.116 492.252 169.474 492.252C170.68 492.252 171.562 491.838 172.156 491.154V492H174.856V483H172.156ZM170.014 489.696C168.772 489.696 167.872 488.85 167.872 487.5C167.872 486.15 168.772 485.304 170.014 485.304C171.256 485.304 172.156 486.15 172.156 487.5C172.156 488.85 171.256 489.696 170.014 489.696ZM184.127 483H176.027V485.592H178.745V492H181.445V485.592H184.127V483ZM189.504 485.7H187.992V483H185.292V492H189.504C191.682 492 193.032 490.74 193.032 488.85C193.032 486.96 191.682 485.7 189.504 485.7ZM189.522 489.66H187.992V488.04H189.522C190.062 488.04 190.404 488.382 190.404 488.85C190.404 489.318 190.062 489.66 189.522 489.66ZM204.55 483L202.858 488.526L200.77 483H197.89L201.418 491.838C201.004 492.792 200.428 493.08 199.222 493.08V495.6C201.562 495.726 203.344 494.592 204.352 491.73L207.43 483H204.55ZM214.725 483H208.425V492H211.125V485.592H214.725V483ZM223.18 483H215.836V488.094C215.836 489.21 215.386 489.732 214.54 489.48V492C217.168 492.306 218.536 490.992 218.536 488.274V485.592H220.48V492H223.18V483ZM229.371 485.7H227.859V483H225.159V492H229.371C231.549 492 232.899 490.74 232.899 488.85C232.899 486.96 231.549 485.7 229.371 485.7ZM233.799 483V492H236.499V483H233.799ZM229.389 489.66H227.859V488.04H229.389C229.929 488.04 230.271 488.382 230.271 488.85C230.271 489.318 229.929 489.66 229.389 489.66ZM57.3416 505L55.6496 510.526L53.5616 505H50.6816L54.2096 513.838C53.7956 514.792 53.2196 515.08 52.0136 515.08V517.6C54.3536 517.726 56.1356 516.592 57.1436 513.73L60.2216 505H57.3416ZM65.185 514.252C66.949 514.252 68.479 513.334 69.253 511.93L66.895 510.58C66.607 511.21 65.941 511.588 65.149 511.588C63.979 511.588 63.115 510.742 63.115 509.5C63.115 508.258 63.979 507.412 65.149 507.412C65.941 507.412 66.589 507.79 66.895 508.42L69.253 507.052C68.479 505.666 66.931 504.748 65.185 504.748C62.449 504.748 60.415 506.818 60.415 509.5C60.415 512.182 62.449 514.252 65.185 514.252ZM77.6296 505H69.5296V507.592H72.2476V514H74.9476V507.592H77.6296V505ZM84.9771 505V505.846C84.3831 505.162 83.5011 504.748 82.2951 504.748C79.9371 504.748 77.9931 506.818 77.9931 509.5C77.9931 512.182 79.9371 514.252 82.2951 514.252C83.5011 514.252 84.3831 513.838 84.9771 513.154V514H87.6771V505H84.9771ZM82.8351 511.696C81.5931 511.696 80.6931 510.85 80.6931 509.5C80.6931 508.15 81.5931 507.304 82.8351 507.304C84.0771 507.304 84.9771 508.15 84.9771 509.5C84.9771 510.85 84.0771 511.696 82.8351 511.696ZM95.418 505V508.24H92.358V505H89.658V514H92.358V510.76H95.418V514H98.118V505H95.418ZM104.419 514.252C107.065 514.252 109.189 512.182 109.189 509.5C109.189 506.818 107.065 504.748 104.419 504.748C101.773 504.748 99.6494 506.818 99.6494 509.5C99.6494 512.182 101.773 514.252 104.419 514.252ZM104.419 511.624C103.249 511.624 102.349 510.778 102.349 509.5C102.349 508.222 103.249 507.376 104.419 507.376C105.589 507.376 106.489 508.222 106.489 509.5C106.489 510.778 105.589 511.624 104.419 511.624ZM117.431 509.392C117.989 508.978 118.277 508.348 118.277 507.574C118.277 506.08 117.215 505 115.217 505H110.717V514H115.577C117.575 514 118.637 512.92 118.637 511.426C118.637 510.508 118.205 509.806 117.431 509.392ZM114.929 507.16C115.415 507.16 115.721 507.358 115.721 507.808C115.721 508.24 115.415 508.42 114.929 508.42H113.237V507.16H114.929ZM115.217 511.768H113.237V510.472H115.217C115.685 510.472 116.009 510.67 116.009 511.102C116.009 511.552 115.685 511.768 115.217 511.768ZM128.62 514L125.254 509.5L128.53 505H125.38L122.68 508.942V505H119.98V514H122.68V510.022L125.56 514H128.62ZM136.093 505L132.241 509.5V505H129.613V514H131.593L135.445 509.5V514H138.073V505H136.093ZM153.194 514L149.828 509.5L153.104 505H149.954L147.254 508.942V505H144.554V514H147.254V510.022L150.134 514H153.194ZM157.962 514.252C160.608 514.252 162.732 512.182 162.732 509.5C162.732 506.818 160.608 504.748 157.962 504.748C155.316 504.748 153.192 506.818 153.192 509.5C153.192 512.182 155.316 514.252 157.962 514.252ZM157.962 511.624C156.792 511.624 155.892 510.778 155.892 509.5C155.892 508.222 156.792 507.376 157.962 507.376C159.132 507.376 160.032 508.222 160.032 509.5C160.032 510.778 159.132 511.624 157.962 511.624ZM171.914 505H164.57V510.094C164.57 511.21 164.12 511.732 163.274 511.48V514C165.902 514.306 167.27 512.992 167.27 510.274V507.592H169.214V514H171.914V505ZM176.304 510.58H182.694C182.766 510.238 182.802 509.878 182.802 509.5C182.802 506.782 180.858 504.748 178.23 504.748C175.386 504.748 173.442 506.818 173.442 509.5C173.442 512.182 175.35 514.252 178.428 514.252C180.138 514.252 181.47 513.622 182.352 512.398L180.192 511.156C179.832 511.552 179.202 511.84 178.464 511.84C177.474 511.84 176.646 511.516 176.304 510.58ZM176.25 508.564C176.502 507.646 177.186 507.142 178.212 507.142C179.022 507.142 179.832 507.52 180.12 508.564H176.25ZM188.566 514.252C190.33 514.252 191.86 513.334 192.634 511.93L190.276 510.58C189.988 511.21 189.322 511.588 188.53 511.588C187.36 511.588 186.496 510.742 186.496 509.5C186.496 508.258 187.36 507.412 188.53 507.412C189.322 507.412 189.97 507.79 190.276 508.42L192.634 507.052C191.86 505.666 190.312 504.748 188.566 504.748C185.83 504.748 183.796 506.818 183.796 509.5C183.796 512.182 185.83 514.252 188.566 514.252ZM40.3274 527L36.4754 531.5V527H33.8474V536H35.8274L39.6794 531.5V536H42.3074V527H40.3274ZM53.1088 536.252C54.8728 536.252 56.4028 535.334 57.1768 533.93L54.8188 532.58C54.5308 533.21 53.8648 533.588 53.0728 533.588C51.9028 533.588 51.0388 532.742 51.0388 531.5C51.0388 530.258 51.9028 529.412 53.0728 529.412C53.8648 529.412 54.5128 529.79 54.8188 530.42L57.1768 529.052C56.4028 527.666 54.8548 526.748 53.1088 526.748C50.3728 526.748 48.3388 528.818 48.3388 531.5C48.3388 534.182 50.3728 536.252 53.1088 536.252ZM61.6993 526.748C59.8453 526.748 58.3153 527.648 57.5413 529.052L59.8273 530.366C60.1153 529.79 60.7453 529.322 61.7353 529.322C62.4733 529.322 63.1033 529.7 63.4633 530.294H60.9613V532.706H63.4633C63.1033 533.3 62.4733 533.678 61.7353 533.678C60.7453 533.678 60.0973 533.21 59.8273 532.634L57.5413 533.93C58.3153 535.334 59.8453 536.252 61.6993 536.252C64.4353 536.252 66.4693 534.362 66.4693 531.5C66.4693 528.638 64.4353 526.748 61.6993 526.748ZM76.6417 536L73.2757 531.5L76.5517 527H73.4017L70.7017 530.942V527H68.0017V536H70.7017V532.022L73.5817 536H76.6417ZM81.4096 536.252C84.0556 536.252 86.1796 534.182 86.1796 531.5C86.1796 528.818 84.0556 526.748 81.4096 526.748C78.7636 526.748 76.6396 528.818 76.6396 531.5C76.6396 534.182 78.7636 536.252 81.4096 536.252ZM81.4096 533.624C80.2396 533.624 79.3396 532.778 79.3396 531.5C79.3396 530.222 80.2396 529.376 81.4096 529.376C82.5796 529.376 83.4796 530.222 83.4796 531.5C83.4796 532.778 82.5796 533.624 81.4096 533.624ZM93.4668 527V530.24H90.4068V527H87.7068V536H90.4068V532.76H93.4668V536H96.1668V527H93.4668ZM102.468 536.252C105.114 536.252 107.238 534.182 107.238 531.5C107.238 528.818 105.114 526.748 102.468 526.748C99.8222 526.748 97.6982 528.818 97.6982 531.5C97.6982 534.182 99.8222 536.252 102.468 536.252ZM102.468 533.624C101.298 533.624 100.398 532.778 100.398 531.5C100.398 530.222 101.298 529.376 102.468 529.376C103.638 529.376 104.538 530.222 104.538 531.5C104.538 532.778 103.638 533.624 102.468 533.624ZM118.305 527H115.713L113.535 530.402L111.357 527H108.765V536H111.357V531.356L113.373 534.488H113.697L115.713 531.356V536H118.305V527ZM126.759 527L122.907 531.5V527H120.279V536H122.259L126.111 531.5V536H128.739V527H126.759ZM138.01 527H129.91V529.592H132.628V536H135.328V529.592H138.01V527ZM143.388 529.7H141.876V527H139.176V536H143.388C145.566 536 146.916 534.74 146.916 532.85C146.916 530.96 145.566 529.7 143.388 529.7ZM143.406 533.66H141.876V532.04H143.406C143.946 532.04 144.288 532.382 144.288 532.85C144.288 533.318 143.946 533.66 143.406 533.66ZM161.043 533.48V527H153.789V530.366C153.789 531.914 153.519 532.778 153.069 533.48H151.953V538.412H154.581V536H159.585V538.412H162.213V533.48H161.043ZM155.895 533.48C156.237 532.67 156.417 531.68 156.417 530.366V529.412H158.415V533.48H155.895ZM165.617 532.58H172.007C172.079 532.238 172.115 531.878 172.115 531.5C172.115 528.782 170.171 526.748 167.543 526.748C164.699 526.748 162.755 528.818 162.755 531.5C162.755 534.182 164.663 536.252 167.741 536.252C169.451 536.252 170.783 535.622 171.665 534.398L169.505 533.156C169.145 533.552 168.515 533.84 167.777 533.84C166.787 533.84 165.959 533.516 165.617 532.58ZM165.563 530.564C165.815 529.646 166.499 529.142 167.525 529.142C168.335 529.142 169.145 529.52 169.433 530.564H165.563ZM179.406 527V530.24H176.346V527H173.646V536H176.346V532.76H179.406V536H182.106V527H179.406ZM188.3 529.7H186.788V527H184.088V536H188.3C190.478 536 191.828 534.74 191.828 532.85C191.828 530.96 190.478 529.7 188.3 529.7ZM188.318 533.66H186.788V532.04H188.318C188.858 532.04 189.2 532.382 189.2 532.85C189.2 533.318 188.858 533.66 188.318 533.66ZM199.476 527H193.176V536H195.876V529.592H199.476V527ZM207.126 527L203.274 531.5V527H200.646V536H202.626L206.478 531.5V536H209.106V527H207.126ZM212.618 536.252C213.554 536.252 214.328 535.478 214.328 534.542C214.328 533.606 213.554 532.832 212.618 532.832C211.682 532.832 210.908 533.606 210.908 534.542C210.908 535.478 211.682 536.252 212.618 536.252Z" fill="white"/>
<rect x="47.5" y="20.5" width="149" height="129" rx="9.5" stroke="white"/>
<path d="M136.775 82.19C129.352 82.19 123.515 79.385 119.265 73.775C115.072 68.1083 112.975 60.6 112.975 51.25C112.975 41.9 115.072 34.42 119.265 28.81C123.515 23.1433 129.352 20.31 136.775 20.31C144.255 20.31 150.092 23.1433 154.285 28.81C158.478 34.42 160.575 41.9 160.575 51.25C160.575 60.6 158.478 68.1083 154.285 73.775C150.092 79.385 144.255 82.19 136.775 82.19ZM127.765 65.785C129.805 69.0717 132.808 70.715 136.775 70.715C140.742 70.715 143.745 69.0433 145.785 65.7C147.882 62.3567 148.93 57.54 148.93 51.25C148.93 44.9033 147.882 40.0583 145.785 36.715C143.745 33.3717 140.742 31.7 136.775 31.7C132.808 31.7 129.805 33.3717 127.765 36.715C125.725 40.0583 124.705 44.9033 124.705 51.25C124.705 57.5967 125.725 62.4417 127.765 65.785ZM178.455 21.5H188.655V81H176.925V33.91L165.705 37.055L162.815 27.025L178.455 21.5Z" fill="white" fill-opacity="0.15"/>
<ellipse cx="122" cy="136.5" rx="59" ry="5.5" fill="url(#paint0_radial)" fill-opacity="0.1"/>
<path d="M161 70.375V113.945C161 119.489 156.489 124 150.945 124H93.0547C87.5109 124 83 119.489 83 113.945V70.375C83 69.0283 84.0908 67.9375 85.4375 67.9375H158.562C159.909 67.9375 161 69.0283 161 70.375Z" fill="#BABABA"/>
<path d="M161 70.375V113.945C161 119.489 156.489 124 150.945 124H146.07C151.614 124 156.125 119.489 156.125 113.945V70.375H161Z" fill="#969696"/>
<path d="M161 62.1484V72.8125H83V62.1484C83 56.5954 87.5016 52.0938 93.0547 52.0938H150.945C156.498 52.0938 161 56.5954 161 62.1484Z" fill="#314963"/>
<path d="M161 62.1484V72.8125H156.125V62.1484C156.125 56.5955 151.623 52.0938 146.07 52.0938H150.945C156.498 52.0938 161 56.5955 161 62.1484Z" fill="#0E2844"/>
<path d="M102.5 61.8438C101.154 61.8438 100.062 60.7524 100.062 59.4062V48.4375C100.062 47.0914 101.154 46 102.5 46C103.846 46 104.938 47.0914 104.938 48.4375V59.4062C104.938 60.7524 103.846 61.8438 102.5 61.8438Z" fill="#FFE07D"/>
<path d="M141.5 61.8438C140.154 61.8438 139.062 60.7524 139.062 59.4062V48.4375C139.062 47.0914 140.154 46 141.5 46C142.846 46 143.938 47.0914 143.938 48.4375V59.4062C143.938 60.7524 142.846 61.8438 141.5 61.8438Z" fill="#FFE07D"/>
<rect x="47.5" y="308.5" width="149" height="129" rx="9.5" stroke="white"/>
<path d="M127.775 369.19C120.352 369.19 114.515 366.385 110.265 360.775C106.072 355.108 103.975 347.6 103.975 338.25C103.975 328.9 106.072 321.42 110.265 315.81C114.515 310.143 120.352 307.31 127.775 307.31C135.255 307.31 141.092 310.143 145.285 315.81C149.478 321.42 151.575 328.9 151.575 338.25C151.575 347.6 149.478 355.108 145.285 360.775C141.092 366.385 135.255 369.19 127.775 369.19ZM118.765 352.785C120.805 356.072 123.808 357.715 127.775 357.715C131.742 357.715 134.745 356.043 136.785 352.7C138.882 349.357 139.93 344.54 139.93 338.25C139.93 331.903 138.882 327.058 136.785 323.715C134.745 320.372 131.742 318.7 127.775 318.7C123.808 318.7 120.805 320.372 118.765 323.715C116.725 327.058 115.705 331.903 115.705 338.25C115.705 344.597 116.725 349.442 118.765 352.785ZM155.341 368V359.245L175.656 338.335C180.189 333.575 182.456 329.608 182.456 326.435C182.456 324.112 181.719 322.242 180.246 320.825C178.829 319.408 176.988 318.7 174.721 318.7C170.244 318.7 166.929 321.023 164.776 325.67L154.916 319.89C156.786 315.81 159.478 312.693 162.991 310.54C166.504 308.387 170.358 307.31 174.551 307.31C179.934 307.31 184.553 309.01 188.406 312.41C192.259 315.753 194.186 320.287 194.186 326.01C194.186 332.187 190.928 338.533 184.411 345.05L172.766 356.695H195.121V368H155.341Z" fill="white" fill-opacity="0.15"/>
<ellipse cx="129" cy="424.5" rx="47" ry="5.5" fill="url(#paint1_radial)" fill-opacity="0.1"/>
<path d="M125.586 373.5C125.586 367.131 126.057 361.12 126.888 355.793C128.903 342.872 133.051 334 137.845 334H109.241C103.341 334 95.3125 347.435 93.3466 365.328C93.0569 367.965 92.8965 370.698 92.8965 373.5C92.8965 373.957 92.9067 374.409 92.915 374.862C93.3022 396.045 102.613 413 109.241 413H137.845C131.074 413 125.586 395.315 125.586 373.5Z" fill="#BABABA"/>
<path d="M126.887 355.793H126.948H126.887C126.057 361.12 125.586 367.131 125.586 373.5C125.586 395.315 131.074 413 137.845 413C144.615 413 150.103 395.315 150.103 373.5C150.103 351.685 144.615 334 137.845 334C133.051 334 128.902 342.872 126.887 355.793Z" fill="#969696"/>
<path d="M137.845 392.569C140.854 392.569 143.293 384.032 143.293 373.5C143.293 362.968 140.854 354.431 137.845 354.431C134.836 354.431 132.396 362.968 132.396 373.5C132.396 384.032 134.836 392.569 137.845 392.569Z" fill="#454545"/>
<path d="M109.847 342.401L106.104 344.897H98.8453C98.4359 345.764 98.038 346.671 97.6562 347.621H106.516C106.785 347.621 107.048 347.541 107.272 347.392L111.358 344.668L109.847 342.401Z" fill="#555555"/>
<path d="M107.123 351.936L103.38 354.431H95.3916C95.1514 355.319 94.9255 356.227 94.7148 357.155H103.793C104.061 357.155 104.325 357.075 104.548 356.926L108.634 354.202L107.123 351.936Z" fill="#555555"/>
<path d="M104.4 361.47L100.657 363.966H93.5126C93.4545 364.417 93.3977 364.87 93.3474 365.328C93.2984 365.774 93.2759 366.238 93.2344 366.69H101.07C101.338 366.69 101.602 366.61 101.825 366.461L105.911 363.737L104.4 361.47Z" fill="#555555"/>
<path d="M92.9579 376.224H101.069C101.338 376.224 101.601 376.144 101.825 375.995L105.911 373.271L104.4 371.005L100.657 373.5H92.8965C92.8965 373.957 92.9067 374.409 92.915 374.862C92.9234 375.319 92.9414 375.771 92.9579 376.224Z" fill="#555555"/>
<path d="M105.762 380.539L102.019 383.034H93.5176C93.6361 383.956 93.7704 384.864 93.9196 385.759H102.432C102.7 385.759 102.964 385.679 103.187 385.53L107.273 382.806L105.762 380.539Z" fill="#555555"/>
<path d="M108.486 390.074L104.743 392.569H95.3984C95.6506 393.501 95.9181 394.409 96.1993 395.293H105.155C105.424 395.293 105.687 395.213 105.911 395.064L109.997 392.34L108.486 390.074Z" fill="#555555"/>
<path d="M111.209 399.608L107.466 402.103H98.8477C99.3026 403.067 99.7734 403.974 100.255 404.828H107.879C108.147 404.828 108.411 404.748 108.634 404.599L112.72 401.875L111.209 399.608Z" fill="#555555"/>
<path d="M118.775 357.155H126.704C126.768 356.706 126.818 356.234 126.887 355.793C126.959 355.33 127.04 354.884 127.118 354.431H119.188L115.445 351.936L113.934 354.202L118.02 356.927C118.243 357.075 118.507 357.155 118.775 357.155Z" fill="#555555"/>
<path d="M117.414 366.69H125.79C125.84 365.776 125.884 364.857 125.953 363.966H117.826L114.083 361.47L112.572 363.737L116.658 366.461C116.882 366.61 117.145 366.69 117.414 366.69Z" fill="#555555"/>
<path d="M117.414 376.224H125.618C125.599 375.323 125.586 374.417 125.586 373.5H117.826L114.083 371.005L112.572 373.271L116.658 375.995C116.882 376.144 117.145 376.224 117.414 376.224Z" fill="#555555"/>
<path d="M117.414 385.759H126.191C126.101 384.864 126.019 383.956 125.948 383.034H117.826L114.083 380.539L112.572 382.806L116.658 385.53C116.882 385.679 117.145 385.759 117.414 385.759Z" fill="#555555"/>
<path d="M118.775 395.293H127.621C127.439 394.409 127.268 393.501 127.108 392.569H119.188L115.445 390.074L113.934 392.34L118.02 395.064C118.243 395.213 118.507 395.293 118.775 395.293Z" fill="#555555"/>
<path d="M121.5 404.828H130.382C130.038 403.976 129.709 403.066 129.396 402.103H121.912L118.169 399.608L116.658 401.875L120.744 404.599C120.968 404.748 121.231 404.828 121.5 404.828Z" fill="#555555"/>
<path d="M120.137 347.621H128.594C128.849 346.675 129.114 345.76 129.395 344.897H120.549L116.806 342.401L115.295 344.668L119.381 347.392C119.605 347.541 119.868 347.621 120.137 347.621Z" fill="#555555"/>
<path d="M132.415 408.914H102.992C105.111 411.524 107.292 413 109.242 413H137.845C135.895 413 134.052 411.525 132.415 408.914Z" fill="#969696"/>
<defs>
<radialGradient id="paint0_radial" cx="0" cy="0" r="1" gradientUnits="userSpaceOnUse" gradientTransform="translate(122 136.5) rotate(90) scale(5.5 59)">
<stop stop-color="white"/>
<stop offset="1" stop-color="white" stop-opacity="0"/>
</radialGradient>
<radialGradient id="paint1_radial" cx="0" cy="0" r="1" gradientUnits="userSpaceOnUse" gradientTransform="translate(129 424.5) rotate(90) scale(5.5 47)">
<stop stop-color="white"/>
<stop offset="1" stop-color="white" stop-opacity="0"/>
</radialGradient>
</defs>
</svg>
